<?xml version="1.0" encoding="UTF-8" standalone="no"?>
<!DOCTYPE svg PUBLIC "-//W3C//DTD SVG 1.1//EN" "http://www.w3.org/Graphics/SVG/1.1/DTD/svg11.dtd">
<svg width="100%" height="100%" viewBox="0 0 14 14" version="1.1" xmlns="http://www.w3.org/2000/svg" xmlns:xlink="http://www.w3.org/1999/xlink" xml:space="preserve" xmlns:serif="http://www.serif.com/" style="fill-rule:evenodd;clip-rule:evenodd;stroke-linejoin:round;stroke-miterlimit:2;">
    <g transform="matrix(1,0,0,1,-1,-1)">
        <path d="M7,2C7,1.448 6.552,1 6,1L2,1C1.448,1 1,1.448 1,2L1,6C1,6.552 1.448,7 2,7L6,7C6.552,7 7,6.552 7,6L7,2Z" style="fill:rgb(12,12,13);"/>
        <path d="M15,2C15,1.448 14.552,1 14,1L10,1C9.448,1 9,1.448 9,2L9,6C9,6.552 9.448,7 10,7L14,7C14.552,7 15,6.552 15,6L15,2Z"/>
        <path d="M7,10C7,9.448 6.552,9 6,9L2,9C1.448,9 1,9.448 1,10L1,14C1,14.552 1.448,15 2,15L6,15C6.552,15 7,14.552 7,14L7,10Z" style="fill:rgb(12,12,13);"/>
        <g transform="matrix(0.00923069,0,0,0.00749938,11.9262,9)">
            <g transform="matrix(1,0,0,1,-392,0)">
                <path d="M625,0L275,0C229.548,0.037 189.547,31.006 178.125,75L534.375,75C597.805,75 650,127.195 650,190.625L650,667.016L684.375,694.516C693.105,701.505 705.514,701.826 714.594,695.297C721.231,690.395 725.11,682.579 725,674.328L725,100C725,45.142 679.858,0 625,0Z" style="fill-rule:nonzero;"/>
            </g>
            <g transform="matrix(1,0,0,1,-392,0)">
                <path d="M500,125L175,125C120.142,125 75,170.142 75,225L75,774.406C74.875,782.621 78.718,790.412 85.312,795.313C94.582,802.044 107.348,801.584 116.109,794.203L337.5,607.688L558.891,794.125C567.592,801.456 580.253,801.966 589.516,795.359C596.194,790.47 600.105,782.636 600,774.359L600,225C600,170.142 554.858,125 500,125Z" style="fill-rule:nonzero;"/>
            </g>
        </g>
    </g>
</svg>
