<?xml version="1.0" encoding="UTF-8" standalone="no"?>
<!DOCTYPE svg PUBLIC "-//W3C//DTD SVG 1.1//EN" "http://www.w3.org/Graphics/SVG/1.1/DTD/svg11.dtd">
<svg width="100%" height="100%" viewBox="0 0 16 16" version="1.1" xmlns="http://www.w3.org/2000/svg" xmlns:xlink="http://www.w3.org/1999/xlink" xml:space="preserve" xmlns:serif="http://www.serif.com/" style="fill-rule:evenodd;clip-rule:evenodd;stroke-linejoin:round;stroke-miterlimit:2;">
    <g>
        <path d="M7,2C7,1.448 6.552,1 6,1L2,1C1.448,1 1,1.448 1,2L1,6C1,6.552 1.448,7 2,7L6,7C6.552,7 7,6.552 7,6L7,2Z" style="fill:rgb(12,12,13);fill-opacity:0.8;"/>
        <path d="M15,2C15,1.448 14.552,1 14,1L10,1C9.448,1 9,1.448 9,2L9,6C9,6.552 9.448,7 10,7L14,7C14.552,7 15,6.552 15,6L15,2Z" style="fill:rgb(12,12,13);fill-opacity:0.8;"/>
        <path d="M7,10C7,9.448 6.552,9 6,9L2,9C1.448,9 1,9.448 1,10L1,14C1,14.552 1.448,15 2,15L6,15C6.552,15 7,14.552 7,14L7,10Z" style="fill:rgb(12,12,13);fill-opacity:0.8;"/>
        <g transform="matrix(0.379638,0,0,0.379638,8.96306,8.95229)">
            <path d="M15.845,6.064C15.718,5.685 15.394,5.403 15,5.331L10.911,4.6L8.985,0.735C8.799,0.362 8.417,0.126 8,0.126C7.584,0.126 7.202,0.362 7.016,0.735L5.089,4.6L1.008,5.329C0.484,5.421 0.097,5.88 0.097,6.413C0.097,6.691 0.203,6.959 0.393,7.163L3.32,10.31L2.711,14.67C2.704,14.721 2.7,14.772 2.7,14.823C2.7,15.426 3.197,15.923 3.8,15.923C3.978,15.923 4.153,15.88 4.311,15.797L8,13.873L11.69,15.8C11.848,15.883 12.023,15.926 12.201,15.926C12.804,15.926 13.301,15.429 13.301,14.826C13.301,14.775 13.297,14.724 13.29,14.673L12.68,10.31L15.606,7.164C15.881,6.869 15.973,6.446 15.845,6.064Z" style="fill:rgb(12,12,13);fill-opacity:0.8;fill-rule:nonzero;"/>
        </g>
    </g>
</svg>
