<svg xmlns="http://www.w3.org/2000/svg" xmlns:xlink="http://www.w3.org/1999/xlink" viewBox="0 0 50 50"><path d="M40.783203 7.2714844 A 2.0002 2.0002 0 0 0 39.386719 7.8867188L25.050781 22.222656L10.714844 7.8867188 A 2.0002 2.0002 0 0 0 9.2792969 7.2792969 A 2.0002 2.0002 0 0 0 7.8867188 10.714844L22.222656 25.050781L7.8867188 39.386719 A 2.0002 2.0002 0 1 0 10.714844 42.214844L25.050781 27.878906L39.386719 42.214844 A 2.0002 2.0002 0 1 0 42.214844 39.386719L27.878906 25.050781L42.214844 10.714844 A 2.0002 2.0002 0 0 0 40.783203 7.2714844 z"/></svg>