<?xml version="1.0" encoding="UTF-8" standalone="no"?>
<!DOCTYPE svg PUBLIC "-//W3C//DTD SVG 1.1//EN" "http://www.w3.org/Graphics/SVG/1.1/DTD/svg11.dtd">
<svg width="100%" height="100%" viewBox="0 0 24 24" version="1.1" xmlns="http://www.w3.org/2000/svg" xmlns:xlink="http://www.w3.org/1999/xlink" xml:space="preserve" xmlns:serif="http://www.serif.com/" style="fill-rule:evenodd;clip-rule:evenodd;stroke-linejoin:round;stroke-miterlimit:2;">
    <path d="M14,6C14,7.097 13.097,8 12,8C10.903,8 10,7.097 10,6C10,4.903 10.903,4 12,4C13.097,4 14,4.903 14,6ZM14,12C14,13.097 13.097,14 12,14C10.903,14 10,13.097 10,12C10,10.903 10.903,10 12,10C13.097,10 14,10.903 14,12ZM12,20C13.097,20 14,19.097 14,18C14,16.903 13.097,16 12,16C10.903,16 10,16.903 10,18C10,19.097 10.903,20 12,20Z"/>
</svg>
