<?xml version="1.0" encoding="UTF-8" standalone="no"?>
<!DOCTYPE svg PUBLIC "-//W3C//DTD SVG 1.1//EN" "http://www.w3.org/Graphics/SVG/1.1/DTD/svg11.dtd">
<svg width="100%" height="100%" viewBox="0 0 670 670" version="1.1" xmlns="http://www.w3.org/2000/svg" xmlns:xlink="http://www.w3.org/1999/xlink" xml:space="preserve" xmlns:serif="http://www.serif.com/" style="fill-rule:evenodd;clip-rule:evenodd;">
    <g transform="matrix(1,0,0,1,-65,-65)">
        <path d="M700,400C700,565.687 565.687,700 400,700C234.315,700 100,565.687 100,400C100,234.315 234.315,100 400,100C565.687,100 700,234.315 700,400Z" style="fill:none;fill-rule:nonzero;stroke:rgb(50,50,50);stroke-width:66.67px;"/>
    </g>
    <g transform="matrix(1,0,0,1,-65,-65)">
        <path d="M350,289.236C362.217,275.396 380.09,266.667 400,266.667C436.82,266.667 466.667,296.514 466.667,333.333C466.667,364.457 445.337,390.6 416.497,397.943C407.577,400.213 400,407.463 400,416.667L400,433.333" style="fill:none;fill-rule:nonzero;stroke:rgb(50,50,50);stroke-width:66.67px;stroke-linecap:round;stroke-linejoin:round;"/>
    </g>
    <g transform="matrix(1,0,0,1,-65,-65)">
        <path d="M400,533.333L400.333,533.333" style="fill:none;fill-rule:nonzero;stroke:rgb(50,50,50);stroke-width:66.67px;stroke-linecap:round;stroke-linejoin:round;"/>
    </g>
</svg>
