<svg xmlns="http://www.w3.org/2000/svg" xmlns:xlink="http://www.w3.org/1999/xlink" viewBox="0 0 30 30"><path d="M15 2 A 1 1 0 0 0 14.300781 2.2851562L3.3925781 11.207031 A 1 1 0 0 0 3.3554688 11.236328L3.3183594 11.267578L3.3183594 11.269531 A 1 1 0 0 0 3 12 A 1 1 0 0 0 4 13L5 13L5 24C5 25.105 5.895 26 7 26L23 26C24.105 26 25 25.105 25 24L25 13L26 13 A 1 1 0 0 0 27 12 A 1 1 0 0 0 26.681641 11.267578L26.666016 11.255859 A 1 1 0 0 0 26.597656 11.199219L23 8.2558594L23 4C23 3.448 22.552 3 22 3L21 3C20.448 3 20 3.448 20 4L20 5.8027344L15.677734 2.2675781 A 1 1 0 0 0 15 2 z M 12 16L18 16L18 24L12 24L12 16 z"/></svg>