<?xml version="1.0" encoding="UTF-8" standalone="no"?>
<!DOCTYPE svg PUBLIC "-//W3C//DTD SVG 1.1//EN" "http://www.w3.org/Graphics/SVG/1.1/DTD/svg11.dtd">
<svg width="100%" height="100%" viewBox="0 0 30 30" version="1.1" xmlns="http://www.w3.org/2000/svg" xmlns:xlink="http://www.w3.org/1999/xlink" xml:space="preserve" xmlns:serif="http://www.serif.com/" style="fill-rule:evenodd;clip-rule:evenodd;stroke-linejoin:round;stroke-miterlimit:2;">
    <path id="rect2475-2" d="M3,0L27,0C28.7,0 30,1.3 30,3L30,27C30,28.7 28.7,30 27,30L3,30C1.3,30 0,28.7 0,27L0,3C0,1.3 1.3,0 3,0ZM3,1C1.867,1 1,1.867 1,3L1,27C1,28.133 1.867,29 3,29L27,29C28.133,29 29,28.133 29,27L29,3C29,1.867 28.133,1 27,1L3,1ZM12.684,11.999C13.324,11.565 14.05,11.345 14.865,11.345C15.178,11.345 15.475,11.377 15.755,11.44L15.755,8.067L20.125,8.537L20.125,9.839C20.271,9.617 20.444,9.409 20.644,9.217C21.334,8.554 22.308,8.18 23.595,8.18C24.552,8.18 25.429,8.389 26.228,8.801L27.048,9.224L25.906,11.961L25.397,15.25C25.397,15.25 23.92,15.25 23.92,15.25L23.92,21.565L16.146,21.565L16.141,21.532C15.689,21.724 15.188,21.82 14.64,21.82C13.283,21.82 12.26,21.283 11.555,20.241C11.072,19.529 10.762,18.615 10.653,17.49C9.873,17.889 8.929,18.1 7.815,18.1C7.815,18.1 7.69,18.1 7.69,18.1L7.69,21.565L3.23,21.565L3.23,9.17L7.59,9.17C9.222,9.17 10.48,9.546 11.385,10.225C11.998,10.684 12.436,11.273 12.684,11.999ZM23.88,10.935C24.31,10.935 24.725,11.035 25.125,11.235L25.77,9.69C25.11,9.35 24.385,9.18 23.595,9.18C22.615,9.18 21.863,9.432 21.337,9.938C20.813,10.443 20.55,11.095 20.55,11.895L20.55,12.6L19.35,12.6L19.35,14.25L20.55,14.25L20.55,20.565L22.92,20.565L22.92,14.25L24.54,14.25L24.795,12.6L22.92,12.6L22.92,11.985C22.92,11.605 22.995,11.335 23.145,11.175C23.295,11.015 23.54,10.935 23.88,10.935ZM19.125,9.435L16.755,9.18L16.755,13.095C16.255,12.595 15.625,12.345 14.865,12.345C14.225,12.345 13.657,12.525 13.163,12.885C12.668,13.245 12.285,13.745 12.015,14.385C11.745,15.025 11.61,15.75 11.61,16.56C11.61,17.88 11.868,18.92 12.383,19.68C12.898,20.44 13.65,20.82 14.64,20.82C15.59,20.82 16.345,20.425 16.905,19.635L17.025,20.565L19.125,20.565L19.125,9.435ZM15.375,19.08C14.955,19.08 14.633,18.895 14.407,18.525C14.183,18.155 14.07,17.505 14.07,16.575C14.07,15.725 14.2,15.095 14.46,14.685C14.72,14.275 15.07,14.07 15.51,14.07C15.76,14.07 15.983,14.125 16.178,14.235C16.372,14.345 16.565,14.515 16.755,14.745L16.755,18.18C16.385,18.78 15.925,19.08 15.375,19.08ZM15.375,18.08C15.528,18.08 15.647,17.998 15.755,17.868C15.755,17.868 15.755,15.151 15.755,15.151C15.732,15.134 15.709,15.119 15.686,15.106C15.635,15.077 15.575,15.07 15.51,15.07C15.418,15.07 15.359,15.135 15.305,15.221C15.119,15.513 15.07,15.97 15.07,16.575C15.07,17.253 15.098,17.736 15.262,18.005C15.289,18.05 15.324,18.08 15.375,18.08ZM7.59,10.17L4.23,10.17L4.23,20.565L6.69,20.565L6.69,17.1L7.815,17.1C9.065,17.1 10.063,16.803 10.808,16.208C11.553,15.613 11.925,14.73 11.925,13.56C11.925,12.44 11.545,11.595 10.785,11.025C10.025,10.455 8.96,10.17 7.59,10.17ZM7.605,15.33L6.69,15.33L6.69,11.925L7.56,11.925C8.78,11.925 9.39,12.47 9.39,13.56C9.39,14.19 9.238,14.643 8.933,14.918C8.628,15.192 8.185,15.33 7.605,15.33ZM7.69,12.926L7.69,14.329C7.933,14.324 8.13,14.295 8.263,14.175C8.397,14.054 8.39,13.836 8.39,13.56C8.39,13.353 8.382,13.183 8.266,13.079C8.135,12.962 7.937,12.932 7.69,12.926Z" style="fill:rgb(180,30,0);"/>
</svg>
