<?xml version="1.0" encoding="UTF-8" standalone="no"?>
<!DOCTYPE svg PUBLIC "-//W3C//DTD SVG 1.1//EN" "http://www.w3.org/Graphics/SVG/1.1/DTD/svg11.dtd">
<svg width="100%" height="100%" viewBox="0 0 250 250" version="1.1" xmlns="http://www.w3.org/2000/svg" xmlns:xlink="http://www.w3.org/1999/xlink" xml:space="preserve" xmlns:serif="http://www.serif.com/" style="fill-rule:evenodd;clip-rule:evenodd;stroke-linecap:round;stroke-linejoin:round;">
    <g id="rect2475-2" transform="matrix(8.33333,0,0,8.33333,0,0)">
        <path d="M3,0L27,0C28.7,0 30,1.3 30,3L30,27C30,28.7 28.7,30 27,30L3,30C1.3,30 0,28.7 0,27L0,3C0,1.3 1.3,0 3,0Z" style="fill:rgb(180,30,0);fill-rule:nonzero;"/>
    </g>
    <g id="Vector" transform="matrix(0.15,0,0,0.15,142.622,-9.66787)">
        <path d="M400,133.333L400,66.667M400,666.667L400,733.333M213.807,213.807L166.667,166.667M590.933,590.933L638.073,638.073M133.333,400L66.667,400M666.667,400L733.333,400M590.95,213.807L638.09,166.667M213.823,590.933L166.683,638.073M400,566.667C307.953,566.667 233.333,492.047 233.333,400C233.333,307.953 307.953,233.333 400,233.333C492.047,233.333 566.667,307.953 566.667,400C566.667,492.047 492.047,566.667 400,566.667Z" style="fill:none;fill-rule:nonzero;stroke:rgb(236,255,0);stroke-width:66.67px;"/>
    </g>
    <g transform="matrix(8.33333,0,0,8.33333,40.37,72.3726)">
        <g>
            <g transform="matrix(0.895822,0,0,0.895822,-2.71736,-8.40755)">
                <path d="M6.96,11.605C8.33,11.605 9.395,11.89 10.155,12.46C10.915,13.03 11.295,13.875 11.295,14.995C11.295,16.165 10.923,17.048 10.178,17.643C9.432,18.238 8.435,18.535 7.185,18.535L6.06,18.535L6.06,22L3.6,22L3.6,11.605L6.96,11.605ZM6.975,16.765C7.555,16.765 7.998,16.628 8.303,16.353C8.608,16.078 8.76,15.625 8.76,14.995C8.76,13.905 8.15,13.36 6.93,13.36L6.06,13.36L6.06,16.765L6.975,16.765Z" style="fill:rgb(255,68,68);fill-rule:nonzero;"/>
            </g>
            <g transform="matrix(0.895822,0,0,0.895822,-2.71736,-8.40755)">
                <path d="M18.495,10.87L18.495,22L16.395,22L16.275,21.07C15.715,21.86 14.96,22.255 14.01,22.255C13.02,22.255 12.267,21.875 11.752,21.115C11.237,20.355 10.98,19.315 10.98,17.995C10.98,17.185 11.115,16.46 11.385,15.82C11.655,15.18 12.037,14.68 12.532,14.32C13.027,13.96 13.595,13.78 14.235,13.78C14.995,13.78 15.625,14.03 16.125,14.53L16.125,10.615L18.495,10.87ZM14.745,20.515C15.295,20.515 15.755,20.215 16.125,19.615L16.125,16.18C15.935,15.95 15.742,15.78 15.547,15.67C15.352,15.56 15.13,15.505 14.88,15.505C14.44,15.505 14.09,15.71 13.83,16.12C13.57,16.53 13.44,17.16 13.44,18.01C13.44,18.94 13.552,19.59 13.777,19.96C14.002,20.33 14.325,20.515 14.745,20.515Z" style="fill:rgb(255,68,68);fill-rule:nonzero;"/>
            </g>
            <g transform="matrix(0.895822,0,0,0.895822,-2.71736,-8.40755)">
                <path d="M23.25,12.37C22.91,12.37 22.665,12.45 22.515,12.61C22.365,12.77 22.29,13.04 22.29,13.42L22.29,14.035L24.165,14.035L23.91,15.685L22.29,15.685L22.29,22L19.92,22L19.92,15.685L18.72,15.685L18.72,14.035L19.92,14.035L19.92,13.33C19.92,12.53 20.182,11.878 20.707,11.373C21.232,10.868 21.985,10.615 22.965,10.615C23.755,10.615 24.48,10.785 25.14,11.125L24.495,12.67C24.095,12.47 23.68,12.37 23.25,12.37Z" style="fill:rgb(255,68,68);fill-rule:nonzero;"/>
            </g>
        </g>
    </g>
    <g transform="matrix(0.1571,0,0,0.1571,2.64182,114.552)">
        <path d="M176.788,24.778C52.3,91.147 77.405,250.663 101.497,310.898C101.497,310.898 120.247,399.648 131.234,502.572C142.8,610.914 162.681,671.309 250.248,668.744C326.605,666.506 370.277,622.677 357.498,488.584C351.473,425.347 354.486,341.019 369.539,217.53C384.592,94.042 337.83,-61.078 176.788,24.778ZM323.75,367.255C314.459,367.663 306.591,360.452 306.183,351.163C303.183,283.017 287.513,232.675 269.695,195.411C253.472,161.583 235.642,138.752 222.814,122.858C222.708,122.87 222.63,122.819 222.525,122.819C221.222,125.108 219.88,127.477 218.459,130.042C212.117,141.452 204.762,155.491 197.722,172.464C183.656,206.411 170.853,251.925 170.841,310.728C170.841,328.398 172,347.267 174.656,367.386C175.88,376.611 169.38,385.07 160.169,386.294C150.947,387.517 142.484,381.017 141.261,371.806C138.406,350.227 137.155,329.872 137.155,310.727C137.064,215.12 168.892,149.764 189.023,113.672C195.669,101.777 201.077,92.684 202.8,88.672C203.063,88.094 203.55,87.725 203.853,87.186L202.011,59.041C201.392,49.752 208.433,41.738 217.708,41.133C226.998,40.514 235.011,47.555 235.616,56.831L237.603,87.147C239.103,89.331 241.722,92.686 245.155,96.909C248.802,101.408 253.273,106.897 258.234,113.33C268.156,126.213 280.013,142.948 291.523,164.133C314.603,206.489 336.236,266.727 339.841,349.688C340.25,358.978 333.039,366.847 323.75,367.255Z" style="fill:rgb(0,168,255);fill-rule:nonzero;"/>
        <path d="M632.975,160.647C477.119,65.712 421.552,217.898 429.514,342.044C437.473,466.191 435.658,550.559 426.027,613.35C405.592,746.495 446.684,792.745 522.789,799.352C610.067,806.93 633.369,747.77 651.119,640.256C667.975,538.138 691.777,450.609 691.777,450.609C719.278,391.847 753.463,234.03 632.975,160.647ZM653.975,509.138C652.237,518.269 643.422,524.269 634.278,522.52C625.147,520.783 619.147,511.967 620.897,502.822C626.356,474.178 628.594,447.941 628.594,424.019C628.541,346.308 605.159,292.964 589.645,261.07C588.752,259.241 587.936,257.595 587.105,255.911C587,255.898 586.908,255.938 586.817,255.938C583.883,259.148 580.817,262.569 577.461,266.438C567.567,277.872 556.002,292.372 544.461,310.964C521.434,348.136 498.408,401.531 490.5,479.083C489.566,488.333 481.303,495.083 472.053,494.148C462.791,493.202 456.053,484.938 457,475.688C464.303,403.397 484.369,349.266 506.356,309.409C528.264,269.606 552.264,243.856 565.988,228.752C569.658,224.713 572.461,221.542 574.08,219.448L577.803,189.277C578.934,180.055 587.342,173.489 596.58,174.633C605.803,175.764 612.369,184.172 611.223,193.409L607.764,221.409C608.053,221.963 608.514,222.356 608.737,222.95C610.131,226.766 614.502,235.266 619.909,246.306C625.344,257.45 631.909,271.556 638.198,288.491C650.791,322.359 662.291,367.65 662.278,424.019C662.28,450.044 659.845,478.441 653.975,509.138Z" style="fill:rgb(0,168,255);fill-rule:nonzero;"/>
    </g>
</svg>
