<?xml version="1.0" encoding="utf-8"?>
<!-- Generator: Adobe Illustrator 24.3.0, SVG Export Plug-In . SVG Version: 6.00 Build 0)  -->
<svg version="1.1"
	 id="svg6" inkscape:export-filename="Z:\Documents\GitHub\Sav22999\common-voice-android\images\icon_to_zoom.png" inkscape:export-xdpi="1638.4" inkscape:export-ydpi="1638.4" inkscape:version="1.0 (4035a4fb49, 2020-05-01)" sodipodi:docname="icon_to_zoom.svg" xmlns:cc="http://creativecommons.org/ns#" xmlns:dc="http://purl.org/dc/elements/1.1/" xmlns:inkscape="http://www.inkscape.org/namespaces/inkscape" xmlns:rdf="http://www.w3.org/1999/02/22-rdf-syntax-ns#" xmlns:sodipodi="http://sodipodi.sourceforge.net/DTD/sodipodi-0.dtd" xmlns:svg="http://www.w3.org/2000/svg"
	 xmlns="http://www.w3.org/2000/svg" xmlns:xlink="http://www.w3.org/1999/xlink" x="0px" y="0px" viewBox="0 0 30 30"
	 style="enable-background:new 0 0 30 30;" xml:space="preserve">
<style type="text/css">
	.st0{fill:#B41E00;}
	.st1{fill:#FF4444;}
</style>
<sodipodi:namedview  bordercolor="#666666" borderopacity="1" gridtolerance="10" guidetolerance="10" id="namedview8" inkscape:current-layer="svg6" inkscape:cx="18.517402" inkscape:cy="14.605599" inkscape:document-rotation="0" inkscape:pageopacity="0" inkscape:pageshadow="2" inkscape:window-height="1002" inkscape:window-maximized="1" inkscape:window-width="1920" inkscape:window-x="-8" inkscape:window-y="-8" inkscape:zoom="11.125147" objecttolerance="10" pagecolor="#ffffff" showgrid="false">
	</sodipodi:namedview>
<path id="rect2475" inkscape:export-xdpi="1638.4" inkscape:export-ydpi="1638.4" d="M3,0h24c1.7,0,3,1.3,3,3v24c0,1.7-1.3,3-3,3H3
	c-1.7,0-3-1.3-3-3V3C0,1.3,1.3,0,3,0z"/>
<path id="rect2475-2" inkscape:export-xdpi="1638.4" inkscape:export-ydpi="1638.4" class="st0" d="M3,0h24c1.7,0,3,1.3,3,3v24
	c0,1.7-1.3,3-3,3H3c-1.7,0-3-1.3-3-3V3C0,1.3,1.3,0,3,0z"/>
<g>
	<path class="st1" d="M12,13.9c0,0.7-0.2,1.3-0.7,1.7s-1.1,0.6-2,0.6H8.8v2.4H7.3v-6.9h2.2c0.8,0,1.5,0.2,1.9,0.5
		C11.8,12.7,12,13.2,12,13.9z M8.8,15h0.5c0.4,0,0.8-0.1,1-0.3c0.2-0.2,0.3-0.4,0.3-0.8c0-0.3-0.1-0.6-0.3-0.8
		C10.1,13,9.8,13,9.4,13H8.8V15z"/>
	<path class="st1" d="M14.9,18.7c-0.6,0-1.1-0.2-1.5-0.7s-0.5-1.1-0.5-2c0-0.9,0.2-1.5,0.5-2c0.4-0.5,0.9-0.7,1.5-0.7
		c0.7,0,1.2,0.3,1.5,0.8h0c-0.1-0.4-0.1-0.7-0.1-1v-1.7h1.4v7.3h-1.1l-0.3-0.7h-0.1C16,18.5,15.5,18.7,14.9,18.7z M15.4,17.6
		c0.4,0,0.6-0.1,0.8-0.3s0.3-0.6,0.3-1.1V16c0-0.6-0.1-1-0.3-1.2c-0.2-0.2-0.5-0.4-0.8-0.4c-0.3,0-0.6,0.1-0.7,0.4
		c-0.2,0.3-0.3,0.7-0.3,1.2s0.1,0.9,0.3,1.2S15.1,17.6,15.4,17.6z"/>
	<path class="st1" d="M22.2,14.5H21v4.2h-1.4v-4.2h-0.8v-0.7l0.8-0.4V13c0-0.6,0.1-1,0.4-1.3c0.3-0.3,0.8-0.4,1.4-0.4
		c0.5,0,0.9,0.1,1.3,0.2l-0.4,1.1c-0.3-0.1-0.6-0.1-0.8-0.1c-0.2,0-0.4,0.1-0.4,0.2C21,12.7,21,12.9,21,13.1v0.3h1.2V14.5z"/>
</g>
</svg>
