<?xml version="1.0" encoding="UTF-8" standalone="no"?>
<!DOCTYPE svg PUBLIC "-//W3C//DTD SVG 1.1//EN" "http://www.w3.org/Graphics/SVG/1.1/DTD/svg11.dtd">
<svg width="100%" height="100%" viewBox="0 0 30 30" version="1.1" xmlns="http://www.w3.org/2000/svg" xmlns:xlink="http://www.w3.org/1999/xlink" xml:space="preserve" xmlns:serif="http://www.serif.com/" style="fill-rule:evenodd;clip-rule:evenodd;stroke-linejoin:round;stroke-miterlimit:2;">
    <path id="rect2475-2" d="M3,0L27,0C28.7,0 30,1.3 30,3L30,27C30,28.7 28.7,30 27,30L3,30C1.3,30 0,28.7 0,27L0,3C0,1.3 1.3,0 3,0Z" style="fill:rgb(180,30,0);fill-rule:nonzero;"/>
    <g transform="matrix(1,0,0,1,0.63,-1.435)">
        <path d="M6.96,11.605C8.33,11.605 9.395,11.89 10.155,12.46C10.915,13.03 11.295,13.875 11.295,14.995C11.295,16.165 10.923,17.048 10.178,17.643C9.432,18.238 8.435,18.535 7.185,18.535L6.06,18.535L6.06,22L3.6,22L3.6,11.605L6.96,11.605ZM6.975,16.765C7.555,16.765 7.998,16.628 8.303,16.353C8.608,16.078 8.76,15.625 8.76,14.995C8.76,13.905 8.15,13.36 6.93,13.36L6.06,13.36L6.06,16.765L6.975,16.765Z" style="fill:rgb(255,68,68);fill-rule:nonzero;"/>
        <path d="M18.495,10.87L18.495,22L16.395,22L16.275,21.07C15.715,21.86 14.96,22.255 14.01,22.255C13.02,22.255 12.267,21.875 11.752,21.115C11.237,20.355 10.98,19.315 10.98,17.995C10.98,17.185 11.115,16.46 11.385,15.82C11.655,15.18 12.037,14.68 12.532,14.32C13.027,13.96 13.595,13.78 14.235,13.78C14.995,13.78 15.625,14.03 16.125,14.53L16.125,10.615L18.495,10.87ZM14.745,20.515C15.295,20.515 15.755,20.215 16.125,19.615L16.125,16.18C15.935,15.95 15.742,15.78 15.547,15.67C15.352,15.56 15.13,15.505 14.88,15.505C14.44,15.505 14.09,15.71 13.83,16.12C13.57,16.53 13.44,17.16 13.44,18.01C13.44,18.94 13.552,19.59 13.777,19.96C14.002,20.33 14.325,20.515 14.745,20.515Z" style="fill:rgb(255,68,68);fill-rule:nonzero;"/>
        <path d="M23.25,12.37C22.91,12.37 22.665,12.45 22.515,12.61C22.365,12.77 22.29,13.04 22.29,13.42L22.29,14.035L24.165,14.035L23.91,15.685L22.29,15.685L22.29,22L19.92,22L19.92,15.685L18.72,15.685L18.72,14.035L19.92,14.035L19.92,13.33C19.92,12.53 20.182,11.878 20.707,11.373C21.232,10.868 21.985,10.615 22.965,10.615C23.755,10.615 24.48,10.785 25.14,11.125L24.495,12.67C24.095,12.47 23.68,12.37 23.25,12.37Z" style="fill:rgb(255,68,68);fill-rule:nonzero;"/>
    </g>
</svg>
