<?xml version="1.0" encoding="UTF-8" standalone="no"?><!DOCTYPE svg PUBLIC "-//W3C//DTD SVG 1.1//EN" "http://www.w3.org/Graphics/SVG/1.1/DTD/svg11.dtd"><svg width="100%" height="100%" viewBox="0 0 125 125" version="1.1" xmlns="http://www.w3.org/2000/svg" xmlns:xlink="http://www.w3.org/1999/xlink" xml:space="preserve" xmlns:serif="http://www.serif.com/" style="fill-rule:evenodd;clip-rule:evenodd;stroke-linejoin:round;stroke-miterlimit:2;"><path id="rect2475-2" d="M12.5,0l100,0c7.083,0 12.5,5.417 12.5,12.5l0,100c0,7.083 -5.417,12.5 -12.5,12.5l-100,0c-7.083,0 -12.5,-5.417 -12.5,-12.5l0,-100c0,-7.083 5.417,-12.5 12.5,-12.5Zm0,4.167l100,-0c4.722,-0 8.333,3.611 8.333,8.333l0,100c0,4.722 -3.611,8.333 -8.333,8.333l-100,0c-4.722,0 -8.333,-3.611 -8.333,-8.333l-0,-100c-0,-4.722 3.611,-8.333 8.333,-8.333Z"/><g><path d="M47.083,56.667c0,3.75 -1.25,6.666 -3.75,8.75c-2.5,2.083 -5.833,3.333 -10,3.333l-3.333,0l0,12.5l-7.5,0l0,-35.417l11.25,0c4.167,0 7.5,0.834 10,2.917c2.5,2.083 3.333,4.583 3.333,7.917Zm-17.083,5.833l2.5,0c2.5,0 4.167,-0.417 5.417,-1.25c1.25,-0.833 1.666,-2.083 1.666,-4.167c0,-1.666 -0.416,-2.916 -1.25,-3.75c-0.833,-0.833 -2.916,-1.25 -5,-1.25l-3.333,0l0,10.417Z" style="fill-rule:nonzero;"/><path d="M62.083,81.667c-3.333,-0 -5.833,-1.25 -7.5,-3.75c-1.666,-2.5 -2.916,-5.834 -2.916,-10.417c-0,-4.583 0.833,-7.917 2.916,-10.417c2.084,-2.5 4.584,-3.75 7.5,-3.75c3.334,0 6.25,1.25 7.917,4.167l0.417,0c-0.417,-2.083 -0.417,-3.75 -0.417,-5.417l0,-8.75l7.5,0l0,37.917l-5.833,0l-1.25,-3.333l-0.417,-0c-2.083,2.5 -4.583,3.75 -7.917,3.75Zm2.5,-5.834c2.084,0 3.334,-0.416 4.167,-1.666c0.833,-1.25 1.25,-2.917 1.25,-5.834l0,-0.833c0,-2.917 -0.417,-5 -1.25,-6.25c-0.833,-1.25 -2.5,-2.083 -4.583,-2.083c-1.667,-0 -2.917,0.833 -3.75,2.083c-0.834,1.25 -1.25,3.333 -1.25,6.25c-0,2.917 0.416,4.583 1.25,6.25c0.833,1.667 2.5,2.083 4.166,2.083Z" style="fill-rule:nonzero;"/><path d="M100,59.583l-6.25,0l0,21.667l-7.5,0l0,-21.667l-4.167,0l0,-3.75l4.167,-2.083l0,-2.083c0,-2.917 0.833,-5.417 2.5,-6.667c1.667,-1.25 4.167,-2.083 7.5,-2.083c2.5,-0 5,0.416 6.667,1.25l-2.084,5.416c-1.666,-0.416 -2.916,-0.833 -4.166,-0.833c-1.25,0 -1.667,0.417 -2.5,0.833c-0.834,0.417 -0.834,1.25 -0.834,2.5l0,2.084l6.667,-0l0,5.416Z" style="fill-rule:nonzero;"/></g></svg>