<?xml version="1.0" encoding="utf-8"?>
<!-- Generator: Adobe Illustrator 24.3.0, SVG Export Plug-In . SVG Version: 6.00 Build 0)  -->
<svg version="1.1"
	 id="svg6" inkscape:export-filename="C:\Users\saver\Documents\GitHub\Sav22999\common-voice-android\Images\icon512.png" inkscape:export-xdpi="1638.4" inkscape:export-ydpi="1638.4" inkscape:version="0.92.4 (5da689c313, 2019-01-14)" sodipodi:docname="icon.svg" xmlns:cc="http://creativecommons.org/ns#" xmlns:dc="http://purl.org/dc/elements/1.1/" xmlns:inkscape="http://www.inkscape.org/namespaces/inkscape" xmlns:rdf="http://www.w3.org/1999/02/22-rdf-syntax-ns#" xmlns:sodipodi="http://sodipodi.sourceforge.net/DTD/sodipodi-0.dtd" xmlns:svg="http://www.w3.org/2000/svg"
	 xmlns="http://www.w3.org/2000/svg" xmlns:xlink="http://www.w3.org/1999/xlink" x="0px" y="0px" viewBox="0 0 30 30"
	 style="enable-background:new 0 0 30 30;" xml:space="preserve">
<style type="text/css">
	.st0{fill:#B41E00;}
	.st1{fill:#FF4444;}
</style>
<sodipodi:namedview  bordercolor="#666666" borderopacity="1" gridtolerance="10" guidetolerance="10" id="namedview8" inkscape:current-layer="svg6" inkscape:cx="18.517402" inkscape:cy="14.605599" inkscape:pageopacity="0" inkscape:pageshadow="2" inkscape:window-height="801" inkscape:window-maximized="1" inkscape:window-width="1536" inkscape:window-x="-8" inkscape:window-y="-8" inkscape:zoom="11.125147" objecttolerance="10" pagecolor="#ffffff" showgrid="false">
	</sodipodi:namedview>
<path id="rect2475" d="M3,0h24c1.7,0,3,1.3,3,3v24c0,1.7-1.3,3-3,3H3c-1.7,0-3-1.3-3-3V3C0,1.3,1.3,0,3,0z"/>
<path id="rect2475-2" class="st0" d="M3,0h24c1.7,0,3,1.3,3,3v24c0,1.7-1.3,3-3,3H3c-1.7,0-3-1.3-3-3V3C0,1.3,1.3,0,3,0z"/>
<g>
	<path class="st1" d="M11.3,13.6c0,0.9-0.3,1.6-0.9,2.1S9,16.5,8,16.5H7.2v3H5.4V11h2.7c1,0,1.8,0.2,2.4,0.7S11.3,12.8,11.3,13.6z
		 M7.2,15h0.6c0.6,0,1-0.1,1.3-0.3s0.4-0.5,0.4-1c0-0.4-0.1-0.7-0.3-0.9S8.5,12.5,8,12.5H7.2V15z"/>
	<path class="st1" d="M14.9,19.6c-0.8,0-1.4-0.3-1.8-0.9s-0.7-1.4-0.7-2.5c0-1.1,0.2-1.9,0.7-2.5s1.1-0.9,1.8-0.9
		c0.8,0,1.5,0.3,1.9,1h0.1c-0.1-0.5-0.1-0.9-0.1-1.3v-2.1h1.8v9.1h-1.4l-0.3-0.8h-0.1C16.3,19.3,15.7,19.6,14.9,19.6z M15.5,18.2
		c0.5,0,0.8-0.1,1-0.4s0.3-0.7,0.3-1.4v-0.2c0-0.7-0.1-1.2-0.3-1.5s-0.6-0.5-1.1-0.5c-0.4,0-0.7,0.2-0.9,0.5s-0.3,0.8-0.3,1.5
		s0.1,1.1,0.3,1.5S15.1,18.2,15.5,18.2z"/>
	<path class="st1" d="M24,14.3h-1.5v5.2h-1.8v-5.2h-1v-0.9l1-0.5v-0.5c0-0.7,0.2-1.3,0.6-1.6s1-0.5,1.8-0.5c0.6,0,1.2,0.1,1.6,0.3
		l-0.5,1.3c-0.4-0.1-0.7-0.2-1-0.2c-0.3,0-0.4,0.1-0.6,0.2s-0.2,0.3-0.2,0.6V13H24V14.3z"/>
</g>
</svg>
