<?xml version="1.0" encoding="UTF-8" standalone="no"?>
<!DOCTYPE svg PUBLIC "-//W3C//DTD SVG 1.1//EN" "http://www.w3.org/Graphics/SVG/1.1/DTD/svg11.dtd">
<svg width="100%" height="100%" viewBox="0 0 30 30" version="1.1" xmlns="http://www.w3.org/2000/svg" xmlns:xlink="http://www.w3.org/1999/xlink" xml:space="preserve" xmlns:serif="http://www.serif.com/" style="fill-rule:evenodd;clip-rule:evenodd;stroke-linejoin:round;stroke-miterlimit:2;">
    <path id="rect2475-2" d="M3,0L27,0C28.7,0 30,1.3 30,3L30,27C30,28.7 28.7,30 27,30L3,30C1.3,30 0,28.7 0,27L0,3C0,1.3 1.3,0 3,0ZM7.59,10.17L4.23,10.17L4.23,20.565L6.69,20.565L6.69,17.1L7.815,17.1C9.065,17.1 10.063,16.803 10.808,16.208C11.553,15.613 11.925,14.73 11.925,13.56C11.925,12.44 11.545,11.595 10.785,11.025C10.025,10.455 8.96,10.17 7.59,10.17ZM7.605,15.33L6.69,15.33L6.69,11.925L7.56,11.925C8.78,11.925 9.39,12.47 9.39,13.56C9.39,14.19 9.238,14.643 8.933,14.918C8.628,15.192 8.185,15.33 7.605,15.33ZM19.125,9.435L16.755,9.18L16.755,13.095C16.255,12.595 15.625,12.345 14.865,12.345C14.225,12.345 13.657,12.525 13.163,12.885C12.668,13.245 12.285,13.745 12.015,14.385C11.745,15.025 11.61,15.75 11.61,16.56C11.61,17.88 11.868,18.92 12.383,19.68C12.898,20.44 13.65,20.82 14.64,20.82C15.59,20.82 16.345,20.425 16.905,19.635L17.025,20.565L19.125,20.565L19.125,9.435ZM15.375,19.08C14.955,19.08 14.633,18.895 14.407,18.525C14.183,18.155 14.07,17.505 14.07,16.575C14.07,15.725 14.2,15.095 14.46,14.685C14.72,14.275 15.07,14.07 15.51,14.07C15.76,14.07 15.983,14.125 16.178,14.235C16.372,14.345 16.565,14.515 16.755,14.745L16.755,18.18C16.385,18.78 15.925,19.08 15.375,19.08ZM23.88,10.935C24.31,10.935 24.725,11.035 25.125,11.235L25.77,9.69C25.11,9.35 24.385,9.18 23.595,9.18C22.615,9.18 21.863,9.432 21.337,9.938C20.813,10.443 20.55,11.095 20.55,11.895L20.55,12.6L19.35,12.6L19.35,14.25L20.55,14.25L20.55,20.565L22.92,20.565L22.92,14.25L24.54,14.25L24.795,12.6L22.92,12.6L22.92,11.985C22.92,11.605 22.995,11.335 23.145,11.175C23.295,11.015 23.54,10.935 23.88,10.935Z" style="fill:rgb(180,30,0);"/>
</svg>
