<?xml version="1.0" encoding="UTF-8" standalone="no"?>
<!DOCTYPE svg PUBLIC "-//W3C//DTD SVG 1.1//EN" "http://www.w3.org/Graphics/SVG/1.1/DTD/svg11.dtd">
<svg width="100%" height="100%" viewBox="0 0 49 78" version="1.1" xmlns="http://www.w3.org/2000/svg" xmlns:xlink="http://www.w3.org/1999/xlink" xml:space="preserve" xmlns:serif="http://www.serif.com/" style="fill-rule:evenodd;clip-rule:evenodd;">
    <g transform="matrix(1,0,0,1,-22.7284,-24.2634)">
        <g id="g24" transform="matrix(1,0,0,1,-3.233,5)">
            <path id="path2" d="M59.632,75.107L59.632,72.285C59.632,67.325 61.647,62.56 65.161,59.212C69.557,55.023 71.978,49.373 71.978,43.303C71.978,31.184 62.119,21.325 50,21.325C49.173,21.325 48.333,21.371 47.504,21.463C37.004,22.624 28.644,31.476 28.057,42.054C27.703,48.433 30.123,54.637 34.697,59.074C38.301,62.57 40.368,67.384 40.368,72.282L40.368,75.106C40.368,78.105 42.807,80.544 45.806,80.544L54.193,80.544C57.192,80.546 59.632,78.106 59.632,75.107ZM55.632,75.107C55.632,75.9 54.986,76.545 54.194,76.545L45.807,76.545C45.014,76.545 44.369,75.899 44.369,75.107L44.369,72.283C44.369,66.31 41.859,60.45 37.483,56.204C33.742,52.575 31.762,47.498 32.052,42.277C32.532,33.627 39.364,26.389 47.945,25.44C48.629,25.364 49.321,25.326 50.002,25.326C59.915,25.326 67.98,33.39 67.98,43.304C67.98,48.269 66,52.89 62.404,56.317C58.102,60.416 55.634,66.236 55.634,72.286L55.634,75.107L55.632,75.107Z" style="fill-rule:nonzero;stroke:black;stroke-width:1px;"/>
            <path id="path4" d="M56.509,82.521L43.491,82.521C42.662,82.521 41.991,83.192 41.991,84.021C41.991,84.85 42.662,85.521 43.491,85.521L56.51,85.521C57.339,85.521 58.01,84.85 58.01,84.021C58.01,83.192 57.338,82.521 56.509,82.521Z" style="fill-rule:nonzero;stroke:black;stroke-width:1px;"/>
            <path id="path6" d="M58.009,88.761C58.009,87.932 57.338,87.261 56.509,87.261L43.491,87.261C42.662,87.261 41.991,87.932 41.991,88.761C41.991,89.59 42.662,90.261 43.491,90.261L56.51,90.261C57.338,90.261 58.009,89.589 58.009,88.761Z" style="fill-rule:nonzero;stroke:black;stroke-width:1px;"/>
            <path id="path22" d="M54.754,93.5C54.754,92.671 54.083,92 53.254,92L46.745,92C45.916,92 45.245,92.671 45.245,93.5C45.245,94.329 45.916,95 46.745,95L53.254,95C54.083,95 54.754,94.329 54.754,93.5Z" style="fill-rule:nonzero;stroke:black;stroke-width:1px;"/>
        </g>
    </g>
</svg>
