<?xml version="1.0" encoding="UTF-8" standalone="no"?>
<svg
   width="76.533997"
   height="92"
   viewBox="0 0 76.533997 92"
   version="1.1"
   xml:space="preserve"
   style="clip-rule:evenodd;fill-rule:evenodd"
   id="svg41"
   sodipodi:docname="light_on.svg"
   inkscape:version="1.1 (c68e22c387, 2021-05-23)"
   xmlns:inkscape="http://www.inkscape.org/namespaces/inkscape"
   xmlns:sodipodi="http://sodipodi.sourceforge.net/DTD/sodipodi-0.dtd"
   xmlns="http://www.w3.org/2000/svg"
   xmlns:svg="http://www.w3.org/2000/svg"><defs
   id="defs45" /><sodipodi:namedview
   id="namedview43"
   pagecolor="#ffffff"
   bordercolor="#666666"
   borderopacity="1.0"
   inkscape:pageshadow="2"
   inkscape:pageopacity="0.0"
   inkscape:pagecheckerboard="0"
   showgrid="false"
   inkscape:zoom="6.8282828"
   inkscape:cx="38.296598"
   inkscape:cy="44.813609"
   inkscape:window-width="1920"
   inkscape:window-height="992"
   inkscape:window-x="-8"
   inkscape:window-y="-8"
   inkscape:window-maximized="1"
   inkscape:current-layer="svg41" />
    <g
   transform="translate(-8.5,-8.5)"
   id="g39">
        <g
   id="g37">
            <g
   id="g35">
                <g
   transform="translate(-3.233,5)"
   id="g3">
                    <path
   id="path2"
   d="m 59.632,75.107 v -2.822 c 0,-4.96 2.015,-9.725 5.529,-13.073 4.396,-4.189 6.817,-9.839 6.817,-15.909 0,-12.119 -9.859,-21.978 -21.978,-21.978 -0.827,0 -1.667,0.046 -2.496,0.138 -10.5,1.161 -18.86,10.013 -19.447,20.591 -0.354,6.379 2.066,12.583 6.64,17.02 3.604,3.496 5.671,8.31 5.671,13.208 v 2.824 c 0,2.999 2.439,5.438 5.438,5.438 h 8.387 c 2.999,0.002 5.439,-2.438 5.439,-5.437 z"
   style="fill-rule:nonzero" />
                </g>
                <g
   transform="translate(-3.233,5)"
   id="g6">
                    <path
   id="path4"
   d="M 56.509,82.521 H 43.491 c -0.829,0 -1.5,0.671 -1.5,1.5 0,0.829 0.671,1.5 1.5,1.5 H 56.51 c 0.829,0 1.5,-0.671 1.5,-1.5 0,-0.829 -0.672,-1.5 -1.501,-1.5 z"
   style="fill-rule:nonzero;stroke:#000000;stroke-width:1px" />
                </g>
                <g
   transform="translate(-3.233,5)"
   id="g9">
                    <path
   id="path6"
   d="m 58.009,88.761 c 0,-0.829 -0.671,-1.5 -1.5,-1.5 H 43.491 c -0.829,0 -1.5,0.671 -1.5,1.5 0,0.829 0.671,1.5 1.5,1.5 H 56.51 c 0.828,0 1.499,-0.672 1.499,-1.5 z"
   style="fill-rule:nonzero;stroke:#000000;stroke-width:1px" />
                </g>
                <g
   transform="translate(-3.233,5)"
   id="g12">
                    <path
   id="path8"
   d="m 14.733,43.267 h 8.643 c 0.829,0 1.5,-0.671 1.5,-1.5 0,-0.829 -0.671,-1.5 -1.5,-1.5 h -8.643 c -0.829,0 -1.5,0.671 -1.5,1.5 0,0.829 0.671,1.5 1.5,1.5 z"
   style="fill-rule:nonzero;stroke:#000000;stroke-width:3px" />
                </g>
                <g
   transform="translate(-3.233,5)"
   id="g15">
                    <path
   id="path10"
   d="m 86.767,41.767 c 0,-0.829 -0.671,-1.5 -1.5,-1.5 h -8.643 c -0.829,0 -1.5,0.671 -1.5,1.5 0,0.829 0.671,1.5 1.5,1.5 h 8.643 c 0.829,0 1.5,-0.671 1.5,-1.5 z"
   style="fill-rule:nonzero;stroke:#000000;stroke-width:3px" />
                </g>
                <g
   transform="translate(-3.233,5)"
   id="g18">
                    <path
   id="path12"
   d="m 48.5,6.5 v 8.643 c 0,0.829 0.671,1.5 1.5,1.5 0.829,0 1.5,-0.671 1.5,-1.5 V 6.5 C 51.5,5.671 50.829,5 50,5 49.171,5 48.5,5.671 48.5,6.5 Z"
   style="fill-rule:nonzero;stroke:#000000;stroke-width:3px" />
                </g>
                <g
   transform="translate(-3.233,5)"
   id="g21">
                    <path
   id="path14"
   d="m 73.877,15.769 -6.111,6.111 c -0.586,0.585 -0.586,1.536 0,2.121 0.293,0.293 0.677,0.439 1.061,0.439 0.384,0 0.768,-0.146 1.061,-0.439 l 6.111,-6.111 c 0.586,-0.585 0.586,-1.536 0,-2.121 -0.587,-0.586 -1.536,-0.586 -2.122,0 z"
   style="fill-rule:nonzero;stroke:#000000;stroke-width:3px" />
                </g>
                <g
   transform="translate(-3.233,5)"
   id="g24">
                    <path
   id="path16"
   d="m 32.234,59.533 c -0.586,-0.586 -1.535,-0.586 -2.121,0 l -6.111,6.111 c -0.586,0.585 -0.586,1.535 0,2.121 0.293,0.293 0.677,0.439 1.061,0.439 0.384,0 0.768,-0.146 1.061,-0.439 l 6.111,-6.111 c 0.585,-0.585 0.585,-1.535 -10e-4,-2.121 z"
   style="fill-rule:nonzero;stroke:#000000;stroke-width:3px" />
                </g>
                <g
   transform="translate(-3.233,5)"
   id="g27">
                    <path
   id="path18"
   d="m 30.113,24.001 c 0.293,0.293 0.677,0.439 1.061,0.439 0.384,0 0.768,-0.146 1.061,-0.439 0.586,-0.585 0.586,-1.536 0,-2.121 l -6.111,-6.111 c -0.586,-0.586 -1.535,-0.586 -2.121,0 -0.586,0.585 -0.586,1.536 0,2.121 z"
   style="fill-rule:nonzero;stroke:#000000;stroke-width:3px" />
                </g>
                <g
   transform="translate(-3.233,5)"
   id="g30">
                    <path
   id="path20"
   d="m 73.877,67.765 c 0.293,0.293 0.677,0.439 1.061,0.439 0.384,0 0.768,-0.146 1.061,-0.439 0.586,-0.586 0.586,-1.536 0,-2.121 l -6.111,-6.111 c -0.586,-0.586 -1.535,-0.586 -2.121,0 -0.586,0.586 -0.586,1.536 0,2.121 z"
   style="fill-rule:nonzero;stroke:#000000;stroke-width:3px" />
                </g>
                <g
   transform="translate(-3.233,5)"
   id="g33">
                    <path
   id="path22"
   d="m 54.754,93.5 c 0,-0.829 -0.671,-1.5 -1.5,-1.5 h -6.509 c -0.829,0 -1.5,0.671 -1.5,1.5 0,0.829 0.671,1.5 1.5,1.5 h 6.509 c 0.829,0 1.5,-0.671 1.5,-1.5 z"
   style="fill-rule:nonzero;stroke:#000000;stroke-width:1px" />
                </g>
            </g>
        </g>
    </g>
</svg>
