<?xml version="1.0" encoding="UTF-8" standalone="no"?>
<svg
   xmlns:dc="http://purl.org/dc/elements/1.1/"
   xmlns:cc="http://creativecommons.org/ns#"
   xmlns:rdf="http://www.w3.org/1999/02/22-rdf-syntax-ns#"
   xmlns:svg="http://www.w3.org/2000/svg"
   xmlns="http://www.w3.org/2000/svg"
   xmlns:sodipodi="http://sodipodi.sourceforge.net/DTD/sodipodi-0.dtd"
   xmlns:inkscape="http://www.inkscape.org/namespaces/inkscape"
   version="1.1"
   x="0px"
   y="0px"
   viewBox="0 0 93.533997 110"
   xml:space="preserve"
   id="svg30"
   sodipodi:docname="light_off.svg"
   width="93.533997"
   height="110"
   inkscape:version="1.0.2-2 (e86c870879, 2021-01-15)"><metadata
     id="metadata36"><rdf:RDF><cc:Work
         rdf:about=""><dc:format>image/svg+xml</dc:format><dc:type
           rdf:resource="http://purl.org/dc/dcmitype/StillImage" /><dc:title /></cc:Work></rdf:RDF></metadata><defs
     id="defs34" /><sodipodi:namedview
     pagecolor="#ffffff"
     bordercolor="#666666"
     borderopacity="1"
     objecttolerance="10"
     gridtolerance="10"
     guidetolerance="10"
     inkscape:pageopacity="0"
     inkscape:pageshadow="2"
     inkscape:window-width="1920"
     inkscape:window-height="1002"
     id="namedview32"
     showgrid="false"
     fit-margin-top="10"
     fit-margin-right="10"
     fit-margin-bottom="10"
     fit-margin-left="10"
     inkscape:zoom="5.3400704"
     inkscape:cx="50.896839"
     inkscape:cy="56.956332"
     inkscape:window-x="-8"
     inkscape:window-y="-8"
     inkscape:window-maximized="1"
     inkscape:current-layer="g24"
     inkscape:document-rotation="0" /><g
     id="g24"
     transform="translate(-3.233,5)"
     style="mix-blend-mode:screen;fill:#000000;fill-opacity:1"><path
       d="m 59.632,75.107 v -2.822 c 0,-4.96 2.015,-9.725 5.529,-13.073 4.396,-4.189 6.817,-9.839 6.817,-15.909 0,-12.119 -9.859,-21.978 -21.978,-21.978 -0.827,0 -1.667,0.046 -2.496,0.138 -10.5,1.161 -18.86,10.013 -19.447,20.591 -0.354,6.379 2.066,12.583 6.64,17.02 3.604,3.496 5.671,8.31 5.671,13.208 v 2.824 c 0,2.999 2.439,5.438 5.438,5.438 h 8.387 c 2.999,0.002 5.439,-2.438 5.439,-5.437 z m -4,0 c 0,0.793 -0.646,1.438 -1.438,1.438 h -8.387 c -0.793,0 -1.438,-0.646 -1.438,-1.438 v -2.824 c 0,-5.973 -2.51,-11.833 -6.886,-16.079 -3.741,-3.629 -5.721,-8.706 -5.431,-13.927 0.48,-8.65 7.312,-15.888 15.893,-16.837 0.684,-0.076 1.376,-0.114 2.057,-0.114 9.913,0 17.978,8.064 17.978,17.978 0,4.965 -1.98,9.586 -5.576,13.013 -4.302,4.099 -6.77,9.919 -6.77,15.969 v 2.821 z"
       id="path2"
       inkscape:connector-curvature="0"
       style="fill:#000000;fill-opacity:1;stroke:#000000;stroke-opacity:1" /><path
       d="M 56.509,82.521 H 43.491 c -0.829,0 -1.5,0.671 -1.5,1.5 0,0.829 0.671,1.5 1.5,1.5 H 56.51 c 0.829,0 1.5,-0.671 1.5,-1.5 0,-0.829 -0.672,-1.5 -1.501,-1.5 z"
       id="path4"
       inkscape:connector-curvature="0"
       style="fill:#000000;fill-opacity:1;stroke:#000000;stroke-opacity:1" /><path
       d="m 58.009,88.761 c 0,-0.829 -0.671,-1.5 -1.5,-1.5 H 43.491 c -0.829,0 -1.5,0.671 -1.5,1.5 0,0.829 0.671,1.5 1.5,1.5 H 56.51 c 0.828,0 1.499,-0.672 1.499,-1.5 z"
       id="path6"
       inkscape:connector-curvature="0"
       style="fill:#000000;fill-opacity:1;stroke:#000000;stroke-opacity:1" /><path
       d="m 54.754,93.5 c 0,-0.829 -0.671,-1.5 -1.5,-1.5 h -6.509 c -0.829,0 -1.5,0.671 -1.5,1.5 0,0.829 0.671,1.5 1.5,1.5 h 6.509 c 0.829,0 1.5,-0.671 1.5,-1.5 z"
       id="path22"
       inkscape:connector-curvature="0"
       style="fill:#000000;fill-opacity:1;stroke:#000000;stroke-opacity:1" /></g></svg>
