<?xml version="1.0" encoding="UTF-8" standalone="no"?>
<!DOCTYPE svg PUBLIC "-//W3C//DTD SVG 1.1//EN" "http://www.w3.org/Graphics/SVG/1.1/DTD/svg11.dtd">
<svg width="100%" height="100%" viewBox="0 0 434 584" version="1.1" xmlns="http://www.w3.org/2000/svg" xmlns:xlink="http://www.w3.org/1999/xlink" xml:space="preserve" xmlns:serif="http://www.serif.com/" style="fill-rule:evenodd;clip-rule:evenodd;stroke-linejoin:round;stroke-miterlimit:2;">
    <g transform="matrix(1,0,0,1,-183.35,-108.35)">
        <path d="M591.667,691.667C586.58,691.567 581.623,690.067 577.333,687.333L400,563.667L222.667,687.333C218.75,689.717 214.252,690.98 209.667,690.98C205.081,690.98 200.584,689.717 196.667,687.333C192.83,685.357 189.58,682.407 187.241,678.78C184.901,675.153 183.554,670.977 183.333,666.667L183.333,200C183.333,175.688 192.991,152.373 210.182,135.182C227.373,117.991 250.688,108.333 275,108.333L525,108.333C549.31,108.333 572.627,117.991 589.817,135.182C607.01,152.373 616.667,175.688 616.667,200L616.667,666.667C616.683,671.207 615.447,675.66 613.097,679.543C610.743,683.423 607.363,686.58 603.333,688.667C599.757,690.63 595.747,691.66 591.667,691.667ZM400,508.333C405.107,508.28 410.11,509.793 414.333,512.667L566.667,618.667L566.667,200C566.667,188.949 562.277,178.351 554.463,170.537C546.65,162.723 536.05,158.333 525,158.333L275,158.333C263.949,158.333 253.351,162.723 245.537,170.537C237.723,178.351 233.333,188.949 233.333,200L233.333,618.667L385.667,512.667C389.89,509.793 394.893,508.28 400,508.333Z" style="fill-rule:nonzero;"/>
    </g>
</svg>
