<svg xmlns="http://www.w3.org/2000/svg" xmlns:xlink="http://www.w3.org/1999/xlink" viewBox="0 0 26 26"><path d="M3 3C1.34375 3 0 4.34375 0 6L0 20C0 21.035156 0.542969 21.933594 1.34375 22.46875C1.46875 22.550781 1.582031 22.625 1.71875 22.6875C1.757813 22.710938 1.800781 22.730469 1.84375 22.75C2.191406 22.910156 2.570313 23 2.96875 23L18.96875 23C20.570313 23 22.066406 22.035156 22.6875 20.5625L22.6875 20.53125L25.78125 12.21875L25.78125 12.1875C26.078125 11.457031 26.085938 10.609375 25.65625 9.96875C25.222656 9.316406 24.425781 9 23.625 9L22 9C22 7.34375 20.65625 6 19 6L11 6C11 4.34375 9.65625 3 8 3 Z M 7.625 11L23.625 11C23.929688 11 23.992188 11.082031 24 11.09375C24.007813 11.105469 24.054688 11.160156 23.9375 11.4375L23.9375 11.5L20.84375 19.78125L20.8125 19.8125C20.554688 20.359375 19.566406 21 18.96875 21L2.96875 21C2.664063 21 2.632813 20.917969 2.625 20.90625C2.617188 20.894531 2.570313 20.839844 2.6875 20.5625L2.6875 20.53125L5.78125 12.21875C5.785156 12.207031 5.808594 12.199219 5.8125 12.1875C6.070313 11.640625 7.027344 11 7.625 11Z"/></svg>