<?xml version="1.0" encoding="UTF-8" standalone="no"?>
<!DOCTYPE svg PUBLIC "-//W3C//DTD SVG 1.1//EN" "http://www.w3.org/Graphics/SVG/1.1/DTD/svg11.dtd">
<svg width="100%" height="100%" viewBox="0 0 667 667" version="1.1" xmlns="http://www.w3.org/2000/svg" xmlns:xlink="http://www.w3.org/1999/xlink" xml:space="preserve" xmlns:serif="http://www.serif.com/" style="fill-rule:evenodd;clip-rule:evenodd;stroke-linejoin:round;stroke-miterlimit:2;">
    <g transform="matrix(1,0,0,1,-66.6667,-66.6667)">
        <path d="M191.833,676.1L133.333,266.667L666.667,266.667L608.167,676.1C603.493,708.795 575.194,733.335 542.167,733.333L257.833,733.333C224.806,733.335 196.507,708.795 191.833,676.1ZM700,133.333L533.333,133.333L533.333,100C533.333,81.714 518.286,66.667 500,66.667L300,66.667C281.714,66.667 266.667,81.714 266.667,100L266.667,133.333L100,133.333C81.714,133.333 66.667,148.381 66.667,166.667C66.667,184.953 81.714,200 100,200L700,200C718.286,200 733.333,184.953 733.333,166.667C733.333,148.381 718.286,133.333 700,133.333Z" style="fill-rule:nonzero;"/>
    </g>
</svg>
