<?xml version="1.0" encoding="utf-8"?><!-- Uploaded to: SVG Repo, www.svgrepo.com, Generator: SVG Repo Mixer Tools -->
<svg width="800px" height="800px" viewBox="0 0 24 24" fill="none" xmlns="http://www.w3.org/2000/svg"><path fill-rule="evenodd" clip-rule="evenodd" d="M12.663 1.5h-1.326c-1.069 0-1.49.09-1.921.27-.432.181-.792.453-1.084.82-.292.365-.493.746-.784 1.774L7.368 5H5a1 1 0 0 0 0 2h.563l.703 11.25c.082 1.32.123 1.98.407 2.481a2.5 2.5 0 0 0 1.083 1.017C8.273 22 8.935 22 10.258 22h3.484c1.323 0 1.985 0 2.502-.252a2.5 2.5 0 0 0 1.083-1.017c.284-.5.325-1.16.407-2.482L18.437 7H19a1 1 0 1 0 0-2h-2.367l-.18-.636c-.292-1.028-.493-1.409-.785-1.775a2.694 2.694 0 0 0-1.084-.819c-.431-.18-.852-.27-1.92-.27zm1.89 3.5-.025-.09c-.203-.717-.29-.905-.424-1.074a.696.696 0 0 0-.292-.221c-.2-.084-.404-.115-1.149-.115h-1.326c-.745 0-.95.031-1.149.115a.696.696 0 0 0-.292.221c-.135.169-.221.357-.424 1.074L9.446 5h5.108zM9.61 8.506a.75.75 0 0 0-.724.776l.297 8.495a.75.75 0 0 0 1.499-.053l-.297-8.494a.75.75 0 0 0-.775-.724zm4.008.724a.75.75 0 0 1 1.499.052l-.297 8.495a.75.75 0 0 1-1.499-.053l.297-8.494z" fill="#000000"/></svg>