<?xml version="1.0" encoding="UTF-8" standalone="no"?>
<!DOCTYPE svg PUBLIC "-//W3C//DTD SVG 1.1//EN" "http://www.w3.org/Graphics/SVG/1.1/DTD/svg11.dtd">
<svg width="100%" height="100%" viewBox="0 0 800 800" version="1.1" xmlns="http://www.w3.org/2000/svg" xmlns:xlink="http://www.w3.org/1999/xlink" xml:space="preserve" xmlns:serif="http://www.serif.com/" style="fill-rule:evenodd;clip-rule:evenodd;stroke-linejoin:round;stroke-miterlimit:2;">
    <g id="Edit---Move_Horizontal" serif:id="Edit / Move_Horizontal" transform="matrix(1,0,0,1,-1,262)">
        <path d="M632.322,-179.678C634.718,-182.074 637.482,-183.881 640.431,-185.101C643.379,-186.324 646.611,-187 650,-187C653.389,-187 656.621,-186.324 659.569,-185.101C662.518,-183.881 665.282,-182.074 667.678,-179.678L767.678,-79.678C777.434,-69.921 777.434,-54.079 767.678,-44.322C757.921,-34.566 742.079,-34.566 732.322,-44.322L675,-101.645L675,377.645L732.322,320.322C742.079,310.566 757.921,310.566 767.678,320.322C777.434,330.079 777.434,345.921 767.678,355.678L667.678,455.678C665.282,458.074 662.518,459.881 659.569,461.101C656.621,462.324 653.389,463 650,463C646.611,463 643.379,462.324 640.431,461.101C637.482,459.881 634.718,458.074 632.322,455.678L532.322,355.678C522.566,345.921 522.566,330.079 532.322,320.322C542.079,310.566 557.921,310.566 567.678,320.322L625,377.645L625,-101.645L567.678,-44.322C557.921,-34.566 542.079,-34.566 532.322,-44.322C522.566,-54.079 522.566,-69.921 532.322,-79.678L632.322,-179.678ZM406.001,-229.5C406.001,-243.298 417.202,-254.499 431,-254.499C444.797,-254.499 455.999,-243.298 455.999,-229.5L455.999,505.5C455.999,519.298 444.797,530.499 431,530.499C417.202,530.499 406.001,519.298 406.001,505.5L406.001,-229.5ZM27.001,-229.5C27.001,-243.298 38.203,-254.499 52,-254.499C65.797,-254.499 76.999,-243.298 76.999,-229.5L76.999,505.5C76.999,519.298 65.797,530.499 52,530.499C38.203,530.499 27.001,519.298 27.001,505.5L27.001,-229.5ZM359.939,-158.939L359.939,75.939C359.939,101.883 338.907,122.914 312.963,122.914L172.036,122.914C146.093,122.914 125.061,101.883 125.061,75.939L125.061,-158.939C125.061,-184.883 146.093,-205.914 172.036,-205.914L312.963,-205.914C338.907,-205.914 359.939,-184.883 359.939,-158.939ZM357.939,200.061L357.939,434.939C357.939,460.883 336.908,481.915 310.964,481.915L170.037,481.915C144.093,481.915 123.061,460.883 123.061,434.939L123.061,200.061C123.061,174.117 144.093,153.086 170.037,153.086L310.964,153.086C336.908,153.086 357.939,174.117 357.939,200.061Z" style="fill:white;"/>
    </g>
</svg>
