<?xml version="1.0" encoding="UTF-8" standalone="no"?>
<!DOCTYPE svg PUBLIC "-//W3C//DTD SVG 1.1//EN" "http://www.w3.org/Graphics/SVG/1.1/DTD/svg11.dtd">
<svg width="100%" height="100%" viewBox="0 0 800 800" version="1.1" xmlns="http://www.w3.org/2000/svg" xmlns:xlink="http://www.w3.org/1999/xlink" xml:space="preserve" xmlns:serif="http://www.serif.com/" style="fill-rule:evenodd;clip-rule:evenodd;stroke-linejoin:round;stroke-miterlimit:2;">
    <g id="Edit---Move_Horizontal" serif:id="Edit / Move_Horizontal" transform="matrix(1,0,0,1,-1,262)">
        <path d="M77.899,390.431C79.119,387.482 80.926,384.718 83.322,382.322L183.322,282.322C193.079,272.566 208.921,272.566 218.678,282.322C228.434,292.079 228.434,307.921 218.678,317.678L161.355,375L640.645,375L583.322,317.678C573.566,307.921 573.566,292.079 583.322,282.322C593.079,272.566 608.921,272.566 618.678,282.322L718.678,382.322C721.074,384.718 722.881,387.482 724.101,390.431C725.324,393.379 726,396.611 726,400C726,403.389 725.324,406.621 724.101,409.569C722.881,412.518 721.074,415.282 718.678,417.678L618.678,517.678C608.921,527.434 593.079,527.434 583.322,517.678C573.566,507.921 573.566,492.079 583.322,482.322L640.645,425L161.355,425L218.678,482.322C228.434,492.079 228.434,507.921 218.678,517.678C208.921,527.434 193.079,527.434 183.322,517.678L83.322,417.678C80.926,415.282 79.119,412.518 77.899,409.569C76.676,406.621 76,403.389 76,400C76,396.611 76.676,393.379 77.899,390.431ZM716.999,-233C716.999,-246.799 728.201,-258.002 742,-258.002C755.799,-258.002 767.001,-246.799 767.001,-233L767.001,275C767.001,288.799 755.799,300.001 742,300.001C728.201,300.001 716.999,288.799 716.999,275L716.999,-233ZM34.999,-233C34.999,-246.799 46.201,-258.002 60,-258.002C73.799,-258.002 85.001,-246.799 85.001,-233L85.001,275C85.001,288.799 73.799,300.001 60,300.001C46.201,300.001 34.999,288.799 34.999,275L34.999,-233ZM386.003,-116.003L386.003,148.002C386.003,177.164 362.363,200.803 333.202,200.803L174.799,200.803C145.637,200.803 121.998,177.164 121.998,148.002L121.998,-116.003C121.998,-145.164 145.637,-168.804 174.799,-168.804L333.202,-168.804C362.363,-168.804 386.003,-145.164 386.003,-116.003ZM680.002,-116.003L680.002,148.002C680.002,177.164 656.362,200.803 627.201,200.803L468.798,200.803C439.637,200.803 415.997,177.164 415.997,148.002L415.997,-116.003C415.997,-145.164 439.637,-168.804 468.798,-168.804L627.201,-168.804C656.362,-168.804 680.002,-145.164 680.002,-116.003Z" style="fill:white;"/>
    </g>
</svg>
