<svg xmlns="http://www.w3.org/2000/svg" xmlns:xlink="http://www.w3.org/1999/xlink" viewBox="0 0 30 30"><path d="M15 2C14.448 2 14 2.448 14 3L14 3.171875C14 3.649875 13.663406 4.0763437 13.191406 4.1523438C12.962406 4.1893437 12.735719 4.2322031 12.511719 4.2832031C12.047719 4.3892031 11.578484 4.1265 11.396484 3.6875L11.330078 3.53125C11.119078 3.02125 10.534437 2.7782344 10.023438 2.9902344C9.5134375 3.2012344 9.2704219 3.785875 9.4824219 4.296875L9.5488281 4.4570312C9.7328281 4.8970313 9.5856875 5.4179219 9.1796875 5.6699219C8.9836875 5.7919219 8.7924688 5.9197344 8.6054688 6.0527344C8.2174688 6.3297344 7.68075 6.2666875 7.34375 5.9296875L7.2226562 5.8085938C6.8316562 5.4175937 6.1985937 5.4175938 5.8085938 5.8085938C5.4185938 6.1995938 5.4185938 6.8326563 5.8085938 7.2226562L5.9296875 7.34375C6.2666875 7.68075 6.3297344 8.2164688 6.0527344 8.6054688C5.9197344 8.7924687 5.7919219 8.9836875 5.6699219 9.1796875C5.4179219 9.5856875 4.8960781 9.7337812 4.4550781 9.5507812L4.296875 9.484375C3.786875 9.273375 3.2002813 9.5153906 2.9882812 10.025391C2.7772813 10.535391 3.0192969 11.120031 3.5292969 11.332031L3.6855469 11.396484C4.1245469 11.578484 4.3892031 12.047719 4.2832031 12.511719C4.2322031 12.735719 4.1873906 12.962406 4.1503906 13.191406C4.0753906 13.662406 3.649875 14 3.171875 14L3 14C2.448 14 2 14.448 2 15C2 15.552 2.448 16 3 16L3.171875 16C3.649875 16 4.0763437 16.336594 4.1523438 16.808594C4.1893437 17.037594 4.2322031 17.264281 4.2832031 17.488281C4.3892031 17.952281 4.1265 18.421516 3.6875 18.603516L3.53125 18.669922C3.02125 18.880922 2.7782344 19.465563 2.9902344 19.976562C3.2012344 20.486563 3.785875 20.729578 4.296875 20.517578L4.4570312 20.451172C4.8980312 20.268172 5.418875 20.415312 5.671875 20.820312C5.793875 21.016313 5.9206875 21.208484 6.0546875 21.396484C6.3316875 21.784484 6.2686406 22.321203 5.9316406 22.658203L5.8085938 22.779297C5.4175937 23.170297 5.4175938 23.803359 5.8085938 24.193359C6.1995938 24.583359 6.8326562 24.584359 7.2226562 24.193359L7.3457031 24.072266C7.6827031 23.735266 8.2174688 23.670266 8.6054688 23.947266C8.7934688 24.081266 8.9856406 24.210031 9.1816406 24.332031C9.5866406 24.584031 9.7357344 25.105875 9.5527344 25.546875L9.4863281 25.705078C9.2753281 26.215078 9.5173438 26.801672 10.027344 27.013672C10.537344 27.224672 11.121984 26.982656 11.333984 26.472656L11.398438 26.316406C11.580438 25.877406 12.049672 25.61275 12.513672 25.71875C12.737672 25.76975 12.964359 25.814562 13.193359 25.851562C13.662359 25.924562 14 26.350125 14 26.828125L14 27C14 27.552 14.448 28 15 28C15.552 28 16 27.552 16 27L16 26.828125C16 26.350125 16.336594 25.923656 16.808594 25.847656C17.037594 25.810656 17.264281 25.767797 17.488281 25.716797C17.952281 25.610797 18.421516 25.8735 18.603516 26.3125L18.669922 26.46875C18.880922 26.97875 19.465563 27.221766 19.976562 27.009766C20.486563 26.798766 20.729578 26.214125 20.517578 25.703125L20.451172 25.542969C20.268172 25.101969 20.415312 24.581125 20.820312 24.328125C21.016313 24.206125 21.208484 24.079312 21.396484 23.945312C21.784484 23.668312 22.321203 23.731359 22.658203 24.068359L22.779297 24.191406C23.170297 24.582406 23.803359 24.582406 24.193359 24.191406C24.583359 23.800406 24.584359 23.167344 24.193359 22.777344L24.072266 22.654297C23.735266 22.317297 23.670266 21.782531 23.947266 21.394531C24.081266 21.206531 24.210031 21.014359 24.332031 20.818359C24.584031 20.413359 25.105875 20.264266 25.546875 20.447266L25.705078 20.513672C26.215078 20.724672 26.801672 20.482656 27.013672 19.972656C27.224672 19.462656 26.982656 18.878016 26.472656 18.666016L26.316406 18.601562C25.877406 18.419563 25.61275 17.950328 25.71875 17.486328C25.76975 17.262328 25.814562 17.035641 25.851562 16.806641C25.924562 16.337641 26.350125 16 26.828125 16L27 16C27.552 16 28 15.552 28 15C28 14.448 27.552 14 27 14L26.828125 14C26.350125 14 25.923656 13.663406 25.847656 13.191406C25.810656 12.962406 25.767797 12.735719 25.716797 12.511719C25.610797 12.047719 25.8735 11.578484 26.3125 11.396484L26.46875 11.330078C26.97875 11.119078 27.221766 10.534437 27.009766 10.023438C26.798766 9.5134375 26.214125 9.2704219 25.703125 9.4824219L25.542969 9.5488281C25.101969 9.7318281 24.581125 9.5846875 24.328125 9.1796875C24.206125 8.9836875 24.079312 8.7915156 23.945312 8.6035156C23.668312 8.2155156 23.731359 7.6787969 24.068359 7.3417969L24.191406 7.2207031C24.582406 6.8297031 24.582406 6.1966406 24.191406 5.8066406C23.800406 5.4156406 23.167344 5.4156406 22.777344 5.8066406L22.65625 5.9296875C22.31925 6.2666875 21.782531 6.3316875 21.394531 6.0546875C21.206531 5.9206875 21.014359 5.7919219 20.818359 5.6699219C20.413359 5.4179219 20.266219 4.8960781 20.449219 4.4550781L20.515625 4.296875C20.726625 3.786875 20.484609 3.2002812 19.974609 2.9882812C19.464609 2.7772813 18.879969 3.0192969 18.667969 3.5292969L18.601562 3.6855469C18.419563 4.1245469 17.950328 4.3892031 17.486328 4.2832031C17.262328 4.2322031 17.035641 4.1873906 16.806641 4.1503906C16.336641 4.0753906 16 3.649875 16 3.171875L16 3C16 2.448 15.552 2 15 2 z M 15 7C19.078645 7 22.438586 10.054876 22.931641 14L16.728516 14 A 2 2 0 0 0 15 13 A 2 2 0 0 0 14.998047 13L11.896484 7.625C12.850999 7.222729 13.899211 7 15 7 z M 10.169922 8.6328125L13.269531 14 A 2 2 0 0 0 13 15 A 2 2 0 0 0 13.269531 15.996094L10.167969 21.365234C8.2464258 19.903996 7 17.600071 7 15C7 12.398945 8.2471371 10.093961 10.169922 8.6328125 z M 16.730469 16L22.931641 16C22.438586 19.945124 19.078645 23 15 23C13.899211 23 12.850999 22.777271 11.896484 22.375L14.998047 17 A 2 2 0 0 0 15 17 A 2 2 0 0 0 16.730469 16 z"/></svg>