<?xml version="1.0" encoding="UTF-8" standalone="no"?>
<!DOCTYPE svg PUBLIC "-//W3C//DTD SVG 1.1//EN" "http://www.w3.org/Graphics/SVG/1.1/DTD/svg11.dtd">
<svg width="100%" height="100%" viewBox="0 0 18 18" version="1.1" xmlns="http://www.w3.org/2000/svg" xmlns:xlink="http://www.w3.org/1999/xlink" xml:space="preserve" xmlns:serif="http://www.serif.com/" style="fill-rule:evenodd;clip-rule:evenodd;stroke-linejoin:round;stroke-miterlimit:2;">
    <g transform="matrix(1,0,0,1,-3.00056,-3)">
        <path id="path2" d="M18,9C18,9 18,9 18,9C19.646,9 21,7.646 21,6C21,4.354 19.646,3 18,3C16.354,3 15,4.354 15,6C15,6.124 15.008,6.247 15.023,6.37L8.083,9.84C7.524,9.301 6.777,9 6.001,9C4.355,9 3.001,10.354 3.001,12C3.001,13.645 4.355,14.999 6.001,14.999C6.777,14.999 7.524,14.698 8.083,14.159L15.023,17.629C15.008,17.752 15,17.876 15,18C15,19.646 16.354,21 18,21C19.646,21 21,19.646 21,18C21,16.354 19.646,15 18,15C17.224,15 16.477,15.301 15.918,15.84L8.978,12.37C9.008,12.124 9.008,11.876 8.978,11.63L15.918,8.16C16.456,8.68 17.19,9 18,9Z" style="fill:rgb(12,12,13);fill-opacity:0.8;"/>
    </g>
</svg>
