<?xml version="1.0" encoding="UTF-8" standalone="no"?>
<!DOCTYPE svg PUBLIC "-//W3C//DTD SVG 1.1//EN" "http://www.w3.org/Graphics/SVG/1.1/DTD/svg11.dtd">
<svg width="100%" height="100%" viewBox="0 0 800 800" version="1.1" xmlns="http://www.w3.org/2000/svg" xmlns:xlink="http://www.w3.org/1999/xlink" xml:space="preserve" xmlns:serif="http://www.serif.com/" style="fill-rule:evenodd;clip-rule:evenodd;stroke-linejoin:round;stroke-miterlimit:2;">
    <g id="Shape" transform="matrix(1,0,0,1,-80,-80)">
        <path d="M752.5,120C752.5,103.443 765.943,90 782.5,90C799.057,90 812.5,103.443 812.5,120L812.5,840C812.5,856.557 799.057,870 782.5,870C765.943,870 752.5,856.557 752.5,840L752.5,120ZM147.5,120C147.5,103.443 160.943,90 177.5,90C194.057,90 207.5,103.443 207.5,120L207.5,840C207.5,856.557 194.057,870 177.5,870C160.943,870 147.5,856.557 147.5,840L147.5,120ZM680,170L680,570C680,614.183 644.183,650 600,650L360,650C315.817,650 280,614.183 280,570L280,170C280,125.817 315.817,90 360,90L600,90C644.183,90 680,125.817 680,170ZM280,880L280,760C280,715.817 315.817,680 360,680L600,680C644.183,680 680,715.817 680,760L680,880L280,880Z" style="fill:white;"/>
    </g>
</svg>
