<?xml version="1.0" encoding="UTF-8" standalone="no"?>
<!DOCTYPE svg PUBLIC "-//W3C//DTD SVG 1.1//EN" "http://www.w3.org/Graphics/SVG/1.1/DTD/svg11.dtd">
<svg width="100%" height="100%" viewBox="0 0 800 800" version="1.1" xmlns="http://www.w3.org/2000/svg" xmlns:xlink="http://www.w3.org/1999/xlink" xml:space="preserve" xmlns:serif="http://www.serif.com/" style="fill-rule:evenodd;clip-rule:evenodd;stroke-linejoin:round;stroke-miterlimit:2;">
    <g id="Shape" transform="matrix(1,0,0,1,-80,-80)">
        <path d="M725.5,120C725.5,103.443 738.943,90 755.5,90C772.057,90 785.5,103.443 785.5,120L785.5,840C785.5,856.557 772.057,870 755.5,870C738.943,870 725.5,856.557 725.5,840L725.5,120ZM174.5,120C174.5,103.443 187.943,90 204.5,90C221.057,90 234.5,103.443 234.5,120L234.5,840C234.5,856.557 221.057,870 204.5,870C187.943,870 174.5,856.557 174.5,840L174.5,120ZM680,280L680,680C680,724.183 644.183,760 600,760L360,760C315.817,760 280,724.183 280,680L280,280C280,235.817 315.817,200 360,200L600,200C644.183,200 680,235.817 680,280ZM476.3,617.98L531,617.98L531,342.02L525.131,342.02L411,382.903L411,427.382L476.3,407.131L476.3,617.98Z" style="fill:white;"/>
    </g>
</svg>
