<?xml version="1.0" encoding="UTF-8" standalone="no"?>
<!DOCTYPE svg PUBLIC "-//W3C//DTD SVG 1.1//EN" "http://www.w3.org/Graphics/SVG/1.1/DTD/svg11.dtd">
<svg width="100%" height="100%" viewBox="0 0 434 584" version="1.1" xmlns="http://www.w3.org/2000/svg" xmlns:xlink="http://www.w3.org/1999/xlink" xml:space="preserve" xmlns:serif="http://www.serif.com/" style="fill-rule:evenodd;clip-rule:evenodd;stroke-linejoin:round;stroke-miterlimit:2;">
    <g transform="matrix(1,0,0,1,-183.349,-108.442)">
        <path d="M525,108.333L275,108.333C250.688,108.333 227.372,117.991 210.182,135.182C192.991,152.373 183.333,175.688 183.333,200L183.333,666.667C183.299,671.257 184.529,675.763 186.887,679.7C189.246,683.637 192.642,686.847 196.704,688.983C200.766,691.117 205.337,692.09 209.917,691.8C214.496,691.51 218.907,689.963 222.666,687.333L400,563.667L577.333,687.333C581.557,690.21 586.557,691.72 591.667,691.667C595.7,691.62 599.677,690.71 603.333,689C607.343,686.803 610.693,683.573 613.037,679.647C615.383,675.72 616.633,671.24 616.667,666.667L616.667,200C616.667,175.688 607.01,152.373 589.817,135.182C572.627,117.991 549.31,108.333 525,108.333Z" style="fill-rule:nonzero;"/>
    </g>
</svg>
