<?xml version="1.0" encoding="UTF-8" standalone="no"?>
<!DOCTYPE svg PUBLIC "-//W3C//DTD SVG 1.1//EN" "http://www.w3.org/Graphics/SVG/1.1/DTD/svg11.dtd">
<svg width="100%" height="100%" viewBox="0 0 640 640" version="1.1" xmlns="http://www.w3.org/2000/svg" xmlns:xlink="http://www.w3.org/1999/xlink" xml:space="preserve" xmlns:serif="http://www.serif.com/" style="fill-rule:evenodd;clip-rule:evenodd;stroke-linejoin:round;stroke-miterlimit:2;">
    <g transform="matrix(1,0,0,1,-80,-80)">
        <path d="M360,160C250.283,160 160,250.283 160,360C160,469.717 250.283,560 360,560C469.717,560 560,469.717 560,360C560,250.283 469.717,160 360,160ZM80,360C80,206.397 206.397,80 360,80C513.603,80 640,206.397 640,360C640,420.573 620.344,479.541 584,528C585.513,529.137 586.943,530.38 588.28,531.72L708.28,651.72C715.48,659.175 719.508,669.144 719.508,679.508C719.508,701.452 701.452,719.508 679.508,719.508C669.144,719.508 659.175,715.48 651.72,708.28L531.72,588.28C530.38,586.943 529.137,585.513 528,584C479.541,620.344 420.573,640 360,640C206.397,640 80,513.603 80,360ZM500,360C500,338.057 481.943,320 460,320L260,320C238.057,320 220,338.057 220,360C220,381.943 238.057,400 260,400L460,400C481.943,400 500,381.943 500,360Z"/>
    </g>
</svg>
