<?xml version="1.0" encoding="UTF-8" standalone="no"?>
<!DOCTYPE svg PUBLIC "-//W3C//DTD SVG 1.1//EN" "http://www.w3.org/Graphics/SVG/1.1/DTD/svg11.dtd">
<svg width="100%" height="100%" viewBox="0 0 640 640" version="1.1" xmlns="http://www.w3.org/2000/svg" xmlns:xlink="http://www.w3.org/1999/xlink" xml:space="preserve" xmlns:serif="http://www.serif.com/" style="fill-rule:evenodd;clip-rule:evenodd;stroke-linejoin:round;stroke-miterlimit:2;">
    <g transform="matrix(1,0,0,1,-80,-80)">
        <path d="M160,360C160,250.283 250.283,160 360,160C469.717,160 560,250.283 560,360C560,469.717 469.717,560 360,560C250.283,560 160,469.717 160,360ZM360,80C206.397,80 80,206.397 80,360C80,513.603 206.397,640 360,640C420.573,640 479.541,620.344 528,584C529.137,585.513 530.38,586.943 531.72,588.28L651.72,708.28C659.175,715.48 669.144,719.508 679.508,719.508C701.452,719.508 719.508,701.452 719.508,679.508C719.508,669.144 715.48,659.175 708.28,651.72L588.28,531.72C586.943,530.38 585.513,529.137 584,528C620.344,479.541 640,420.573 640,360C640,206.397 513.603,80 360,80ZM320,260C320,238.057 338.057,220 360,220C381.943,220 400,238.057 400,260L400,320L460,320C481.943,320 500,338.057 500,360C500,381.943 481.943,400 460,400L400,400L400,460C400,481.943 381.943,500 360,500C338.057,500 320,481.943 320,460L320,400L260,400C238.057,400 220,381.943 220,360C220,338.057 238.057,320 260,320L320,320L320,260Z"/>
    </g>
</svg>
