<?xml version="1.0" encoding="UTF-8" standalone="no"?>
<!DOCTYPE svg PUBLIC "-//W3C//DTD SVG 1.1//EN" "http://www.w3.org/Graphics/SVG/1.1/DTD/svg11.dtd">
<svg width="100%" height="100%" viewBox="0 0 387 258" version="1.1" xmlns="http://www.w3.org/2000/svg" xmlns:xlink="http://www.w3.org/1999/xlink" xml:space="preserve" xmlns:serif="http://www.serif.com/" style="fill-rule:evenodd;clip-rule:evenodd;stroke-linejoin:round;stroke-miterlimit:2;">
    <g>
        <path d="M191.96,30.51C195.71,29.92 199.12,28.07 202.87,27.45C205.18,28.33 205.24,31.34 206.6,33.14C206.59,35.28 205.54,37.71 207.03,39.59C210.04,43.83 208.28,49.21 210.06,53.84C212.41,56.08 216.77,55.32 219.26,53.61C222.14,53.68 224.8,52.24 227.69,52.3C236.88,53.64 245.69,48.93 254.88,49.46C253.31,49.89 251.74,50.25 250.19,50.68C249.59,52.99 245.95,51.79 245.91,54.42C249.98,53.99 253.96,53.05 258.02,52.45C255.56,55.23 250.78,54.31 247.38,55.51C249.69,56.4 252.2,55.52 254.58,55.49C254.35,55.83 253.89,56.5 253.66,56.83L253.22,57.36C251.49,57.02 249.77,56.67 248.06,56.33C248.07,57.32 248.1,59.32 248.11,60.32L249.87,60.22C250.31,61 250.76,61.79 251.23,62.57C251.32,61.94 251.5,60.68 251.59,60.05C252.05,60.18 252.99,60.45 253.46,60.58C253.31,61.14 253,62.25 252.85,62.81C252.62,63.58 252.16,65.14 251.93,65.91C250.81,64.83 250.57,61.95 248.44,62.82C247.88,64.64 250.16,65.49 251.03,66.76C248.08,66.52 249.51,69.49 251.66,68.01C252.93,67.6 254.24,67.21 255.54,66.82C255.18,66.83 254.46,66.84 254.11,66.85L253.85,65.49C253.75,64.82 253.56,63.49 253.46,62.82C255.83,62.81 258.28,62.46 260.62,63.09C260.74,63.99 262.533,61.999 262.653,62.899C264.243,62.089 265.873,63.105 267.193,61.885C269.933,61.365 271.07,62.68 273.25,60.78C275.37,60.31 277.54,60.22 279.71,60.22C293.99,60.28 311.34,56.99 325.63,56.99C325.38,69.22 326.91,84.01 326.21,96.22C326.82,96.78 324.5,103.01 325.14,103.58C325.45,105.24 324.75,101.92 325.14,103.58C325.57,101.13 325.87,98.67 326.21,96.22C325.34,91.53 325.69,86.75 325.66,82.02C325.64,73.68 325.69,65.33 325.63,56.99C316.52,57.15 308.77,59.404 299.67,58.934C299.26,58.854 296.891,59.319 296.491,59.249C296.031,59.409 293.963,59.354 293.513,59.524C287.703,59.734 282.709,60.263 276.909,60.293C277.159,59.693 278.21,55.41 278.47,54.81C276.67,55.4 274.95,59.98 273.25,60.78C269.74,60.83 264.12,63.08 260.62,63.09C260.83,62.52 256.282,62.24 256.312,62.73C255.722,62.62 253.46,62.82 253.46,62.82C253.179,62.879 252.536,60.18 251.59,60.05C250.922,59.958 254.754,55.585 254.58,55.49C262.84,55.19 270.41,51.99 278.66,52.42C278.68,51.93 278.73,50.95 278.76,50.47C271.71,51 264.84,52.74 257.83,53.5L258.06,52.3C265.28,51.2 272.49,50.08 279.73,49.14C281.14,48.83 282.57,49.08 283.91,49.61C282.61,49.73 280.03,49.98 278.73,50.1C280.8,51.72 283.56,51.22 285.9,52.19C287.72,52.93 289.64,52.24 291.5,52.03C291.35,51.6 291.04,50.75 290.89,50.32C294.16,49.66 297.48,49.25 300.81,49.02L299.98,50.84C302.32,51.56 304.89,51.23 306.92,49.82C306.37,49.63 305.26,49.24 304.7,49.04C305.98,47.66 308.46,48.3 310.11,47.31C307.58,47.02 305.04,47.42 302.53,47.23C303.94,45.38 306.94,46.28 309.01,45.57C308.54,44.72 307.83,44.37 306.89,44.53C303.63,44.57 300.39,45.03 297.14,44.85L297.53,43.54C296.16,43.73 294.82,43.72 293.49,43.5C299.84,42 306.43,41.99 312.85,40.87C314.57,40.31 316.19,41.08 317.62,42.02C317.41,42.68 317,43.99 316.79,44.65C317.65,45.21 318.52,45.77 319.39,46.33C321.32,45.55 323.3,44.94 325.32,44.4C325.22,48.15 321.36,48.32 318.82,49.75C320.99,50.06 323.07,49.27 325.1,48.58C326.21,49.47 327.55,49.73 328.96,49.77C328.5,50.85 327.26,52.2 329.13,52.6C328.99,52.95 328.72,53.64 328.58,53.99C328.72,54.73 329,56.21 329.13,56.94C329.63,56.94 330.62,56.92 331.12,56.92C331.02,57.77 330.82,59.48 330.72,60.34C335.14,60.08 339.48,59.18 343.86,58.57C344.45,59.06 345.62,60.05 346.2,60.55C343.11,63.03 338.4,61.62 334.79,63.21C331.47,63.71 335.27,65.39 336.29,66.11C336.22,66.8 336.08,68.19 336.01,68.88C336.44,68.65 337.29,68.19 337.72,67.96C336.86,66.58 336.03,65.18 334.95,63.97C338.96,64.45 343.4,61.52 347.08,64.02C347.64,66.39 347.01,68.86 346.84,71.25C347.18,71.57 347.86,72.2 348.2,72.51C348.53,75.07 349.56,77.63 348.89,80.23C349.27,80.66 350.05,81.53 350.44,81.96C350.23,82.75 349.83,84.31 349.63,85.1C350.47,86.44 350.69,87.98 350.83,89.54C358.19,89.86 365.42,87.79 372.76,87.6C375.84,87.88 373.51,90.5 372.42,91.63C373.46,92.43 374.56,93.26 375.6,94.09C374.85,96.2 374.49,98.4 373.98,100.56C368.72,100.93 363.4,101.17 358.26,102.37C363.33,104.45 368.72,100.64 373.88,101.86C374.08,103.94 375.16,105.85 375.25,107.94C367.22,109.07 359.1,109.54 351.07,110.82C351.23,110.31 351.55,109.31 351.7,108.8C353.47,109.45 355.04,108.24 356.63,107.68C360.07,108.87 363.55,107.94 366.96,107.18C367.83,106.23 368.69,105.27 369.57,104.3C366.39,103.94 364.23,107.58 360.96,106.53C357.34,105.68 353.79,108.95 350.34,106.78C348.46,107.85 345.27,107.51 344.57,109.97C346.33,109.87 348.12,109.73 349.87,109.42C350.33,110.03 350.8,110.64 351.28,111.26C349.08,111.18 346.9,111.03 344.74,111.45C348.33,112.64 352.11,111.44 355.75,111.06C360.7,110.2 365.79,110.89 370.75,109.93C372.32,109.9 375.21,108.43 375.77,110.83C374.29,111.29 371.83,111.38 372.24,113.54C373.54,113.55 374.85,113.57 376.16,113.61C375.61,115.03 375.03,116.44 374.45,117.86C376.13,118.33 377.31,119.82 377.5,121.55C373.5,122.27 369.43,122.49 365.47,123.44C365.71,123.65 366.18,124.07 366.41,124.28C370.06,124.06 373.65,123.11 377.33,122.93C376.89,125.01 376.83,127.13 376.6,129.24C373.15,130.95 369.12,130.64 365.38,130.93C365.4,135.3 366.7,139.59 366.17,143.97C365.73,148.81 367.58,153.37 368.28,158.06C368.1,161.59 363.88,160.54 361.53,160.82C361.31,162.67 361.59,164.5 362.14,166.27C362.99,169.03 362.47,171.94 362.57,174.78C360.35,173.21 357.89,173.95 355.92,175.53C355,175.32 353.18,174.91 352.27,174.71C353.29,173.72 354.35,172.79 355.41,171.83C353.43,171.72 351.46,171.71 349.5,171.72C349.22,173.76 348.79,175.77 348.48,177.79C350.8,181.52 352.05,185.84 352.48,190.19C351.02,191.09 349.48,192.01 347.69,191.61C342.06,191.12 336.57,194.1 330.98,192.65C331.82,191.89 332.69,191.18 333.61,190.49C333.11,190.24 332.11,189.73 331.61,189.48C329.77,190.15 327.85,190.56 325.95,190.94L325.95,190.9C328.11,190.69 328.5,189.14 328.28,187.25L328.44,187.23L328.44,189.6C330.16,189.33 331.87,188.92 333.55,188.37C332.73,187.46 331.9,186.58 331.06,185.73C329.9,185.63 328.75,185.51 327.62,185.37C327.08,185.55 326,185.91 325.46,186.09C324.51,186.38 323.57,186.67 322.63,186.95C321.53,185.93 320.41,184.92 319.31,183.92C318.37,185.02 318.03,186.34 318.16,187.77C317.28,187.53 315.52,187.04 314.64,186.79C316.08,184.48 312.15,185.25 312.63,187.11C313.13,187.03 314.14,186.87 314.64,186.79C314.2,188.79 312.08,188.66 310.5,188.84C308.24,190.01 305.95,191.14 303.72,192.36C301.14,192.01 298.78,190.82 296.21,190.54C296.46,191.9 296.66,193.34 295.58,194.44C294.59,193.68 293.74,192.73 292.72,192.06C291.96,192.44 291.26,192.9 290.63,193.45C290.17,193.18 289.25,192.62 288.78,192.34C285.1,193.13 282.21,195.53 279.67,198.17C280.21,196.85 280.77,195.54 281.32,194.23C283.4,193.11 285.43,191.85 287.72,191.16C287.96,190.71 288.44,189.81 288.68,189.36C286.85,189.68 285.03,190.03 283.22,190.39C276.99,195.23 267.14,193.39 262,199.93C261.75,199.63 261.26,199.03 261.01,198.73C260.23,198.95 258.66,199.37 257.87,199.58C257.54,199.66 256.88,199.83 256.55,199.91C252.81,200.93 248.59,201.55 245.78,204.47C244.68,204.82 243.59,205.18 242.5,205.54C242.19,205.26 241.58,204.7 241.27,204.42C241.07,205.03 240.66,206.27 240.46,206.88C238.15,205.65 235.55,206.49 234.47,208.84C236.38,208.92 238.27,208.52 239.98,207.64C241.4,207.6 242.82,207.74 243.99,208.65C244.24,209.01 244.74,209.73 244.99,210.09C245.24,209.52 245.75,208.37 246,207.79C246.18,206.89 246.12,205.89 246.64,205.08C249.46,204.09 252.36,203.28 255.35,202.87C252.99,204.63 250.2,205.6 247.59,206.87C250.53,206.33 253.41,205.06 256.47,205.47C252.34,208.03 247.47,209.28 243.64,212.27C246.31,212.44 249,212.57 251.68,212.24C252.58,211.5 253.54,210.81 254.56,210.23C252.85,213.17 248.36,213 246.55,216.06C248.86,215.67 251.52,216 253.5,214.5C254.15,214.48 254.8,214.49 255.47,214.53C251.21,215.86 247.17,217.7 243.18,219.67C237.68,221.01 232.11,222.36 226.86,224.52C224.24,226.52 221.67,228.67 218.46,229.7C217.04,228.02 216.4,225.89 215.4,223.97C216.54,223.15 217.74,222.38 218.83,221.46C215.24,221.2 213.25,224.8 209.95,225.52C210.21,224.53 210.53,223.57 210.87,222.61C213.24,222.67 215.51,221.76 217.1,219.97C218.02,219.44 218.95,218.92 219.88,218.39C219.32,218.27 218.22,218.05 217.66,217.93L217.56,219.25C215.37,218.96 213.81,220.86 211.68,220.87C212.83,217.87 217.3,218.3 218.3,215.07C214.2,216.07 210.75,218.75 206.6,219.56C205.04,219.93 203.32,220.2 202.33,221.6C201.95,221.46 201.19,221.16 200.82,221.02C198.85,221.35 196.84,223.24 194.89,222.48C196.08,221.3 197.64,220.23 197.45,218.33C198.31,218.87 199.17,219.41 200.06,219.94C199.85,217.76 201.69,216.95 203.32,216.11C203.61,215.15 204.18,213.23 204.47,212.27C202.35,213.27 200.25,214.32 198.08,215.21C197.54,213.16 198.19,211.29 199.37,209.63C198.37,210.18 197.44,210.82 196.51,211.45C195.7,209.4 193.98,211.05 193.29,211.92C194.08,211.82 195.67,211.62 196.46,211.53C196.07,214.67 192.75,213.32 190.71,213.71C191.38,212.14 192.08,210.59 192.71,209C190.24,209.47 189.27,207.2 187.98,205.74C188.7,204.92 189.41,204.08 190.12,203.24L189.26,202.78C187.73,201.98 185.82,201.26 186.25,199.15C185.69,199.24 184.56,199.42 184,199.51C184.15,200.35 184.31,201.2 184.49,202.05C184.23,201.57 183.72,200.61 183.46,200.13C180.3,200.66 177.07,201.05 174.15,202.46C171.39,202.7 168.63,202.72 165.89,202.73C163.66,204.08 161.27,205.15 158.75,205.77C159.75,204.27 161.21,203.2 162.69,202.22C160.72,202.52 160.73,205.76 158.75,205.77C145.78,205.79 136.864,206.009 123.894,206.139C122.834,204.639 111.864,204.751 110.734,205.961C107.594,205.851 107.44,202.71 104.3,202.7C103.96,198.36 102.34,194.41 100.21,190.67C99.61,191.02 98.4,191.7 97.8,192.04C98,191.38 98.4,190.05 98.6,189.39C95.43,191.5 91.18,192.73 88.93,195.77C89.1,196.02 89.42,196.52 89.59,196.77C89.1,197.03 88.13,197.57 87.65,197.83C87.42,197.65 86.95,197.29 86.72,197.11C83.05,197.93 80.26,200.69 76.84,202.12C76.62,199.92 76.67,197.7 77.21,195.55C77.06,195.1 76.76,194.19 76.61,193.74C78.41,192.87 81.83,194.98 81.79,191.88C85.69,192.62 88.56,187.82 92.29,189.7C94.33,189 96.29,188.07 98.11,186.89C97.76,186.19 97.42,185.49 97.09,184.79C98.67,183.83 98.88,181.9 96.96,181.19C89.8,184.45 83.38,189.12 76.68,193.2C76.56,189.38 76.58,185.54 76.99,181.73C78.57,182.2 80.15,182.71 81.76,183.15C81.16,182.65 79.96,181.63 79.36,181.13C79.8,180.61 80.7,179.58 81.14,179.06C79.71,180.05 78.21,180.94 76.67,181.75C76.68,180.82 76.68,178.96 76.68,178.03C82.4,174.21 89.01,171.82 94.34,167.42C92.91,167.14 89.44,168.53 89.45,166C91.52,163.97 94.67,163.68 96.75,161.62C90.16,162.85 84.27,166.37 78.78,170.04C78.59,170.58 78.21,171.67 78.02,172.21C76.97,171.81 76.57,171.05 76.81,169.93C80.2,167.34 84.37,165.94 87.55,163.02C85.11,163.61 82.77,164.39 80.37,165.08C79.16,165.46 71.7,167.73 70.77,168.07C70.41,167.59 69.69,166.64 69.34,166.16C66.79,167.42 64.32,168.8 61.93,170.31C61.88,169.72 61.77,168.54 61.71,167.94C61.58,168.64 61.32,170.04 61.19,170.74C57.55,173.21 53.91,175.7 50.1,177.9C49.94,178.3 49.61,179.09 49.45,179.49C55.41,175.85 61.54,172.49 67.85,169.48C69.78,169.13 71.1,170.83 72.32,172.02C69.89,172.22 67.27,172.06 65.34,173.81C64.77,173.97 63.64,174.29 63.07,174.45C63.42,175.64 63.76,176.83 64.12,178.03C64.17,177.55 64.28,176.59 64.33,176.11C67.82,175.73 73.97,171.82 76.81,169.93C76.79,170.95 78.05,171.18 78.02,172.21C72.41,175.76 61.85,181.44 56.85,185.86C62.67,183.03 71.555,177.651 76.935,174.091C76.965,174.741 76.687,175.984 76.717,176.624C73.137,178.944 66.32,182.93 62.86,185.41C63.2,185.47 63.9,185.59 64.25,185.65C67.52,183.9 73.9,180.51 76.68,178.03L76.68,193.2C75.46,194.23 71.2,196.96 70.02,198.03C70.95,197.66 76.28,195.92 77.21,195.55C77.07,198.27 76.76,199.39 76.84,202.12C72.32,204.72 65.15,210.74 60.64,213.36C60.12,213.35 59.09,213.32 58.57,213.31C58.81,212.79 59.27,211.75 59.51,211.23C57.8,210.2 55.07,209.52 56.48,206.98C53.41,205.06 49.1,203.2 48.91,199.04C47.75,195.9 45.43,193.15 42.83,191.05C42.97,190.54 43.23,189.52 43.36,189.01C40.57,188.18 41.18,185.01 40.65,182.81C43.87,180.33 47.83,178.9 50.7,175.96C52,174.65 53.61,173.73 55.19,172.8C55.68,170.69 57.79,169.76 58.98,168.12C54.57,168.56 51.62,172.34 47.44,173.41C48.27,172.05 49.58,171.12 50.76,170.09C40.99,171.8 31.37,174.19 21.71,176.38C19.95,176.53 18.37,175.53 16.74,175.03C20.84,171.47 18.73,165.34 17.06,161C16.61,158.19 14.25,155.94 14.46,153.04C14.79,151.26 13.15,150.1 12.32,148.76C12.7,146.37 12.44,143.96 12.12,141.58C10.17,139.78 11.36,136.81 9.08,135.01C10.27,133.91 11.61,132.91 13.28,132.72C21.79,131.02 30.39,129.88 38.96,128.5C39.19,125.15 45.24,125.6 44.51,121.53C42.55,120.54 40.9,117.82 38.42,119.01C38.09,115.87 40.2,118.3 41.71,118.55C42.98,117.58 42.25,115.74 42.37,114.38C41.4,114.63 40.63,115.17 40.06,116.02C39.15,115.21 37.98,113.44 39.81,112.86C45.49,110.04 51.69,108.38 57.34,105.46C60.27,103.75 63.9,103.41 66.45,101.03C65.79,100 65.11,98.97 64.42,97.96C64.24,96.19 64.14,94.37 65.48,92.98C64.08,90.08 62.9,87.03 60.89,84.49C60.3,84.68 59.12,85.04 58.53,85.23C58.31,84.57 57.88,83.25 57.66,82.59C62.15,84.17 58.84,80.15 59.38,78.12L58.78,78.01L58.65,79.72L57.08,79.45C57.4,78.46 58.03,76.46 58.35,75.46C56.87,75.92 55.92,77.19 54.74,78.09C54.67,76.88 55.12,75.93 56.09,75.25C62.01,71.45 67.12,66.29 73.96,64.02C74.81,63.63 75.68,63.25 76.55,62.88C77.87,62.39 79.09,61.67 80.28,60.92C83.22,59.86 86.17,58.83 89.07,57.66C90.6,57.02 92.26,56.76 93.87,57.39C93.41,57.71 92.5,58.34 92.05,58.65C91.84,59.17 91.43,60.2 91.22,60.71L94.21,60.06C93.7,60.6 92.67,61.69 92.16,62.24C93.27,61.95 95.5,61.38 96.62,61.09L96.06,63.22C98.19,62.3 100.17,61.1 101.82,59.44L102.84,58.76C102.61,58.29 102.15,57.35 101.92,56.88C105.13,56.12 108.48,53.85 111.57,54.03L111.29,55.92C112.96,54.72 114.92,54.14 116.97,54.01C118.12,53.73 119.26,53.43 120.42,53.13L119.76,55.08C123.52,53.56 127.38,52.19 131.43,51.68L131.74,50.52C130.94,50.55 129.36,50.61 128.56,50.64C129.69,50.16 130.87,49.8 132.08,49.5L131.73,51.5C133.42,51.04 135.13,50.62 136.86,50.25C136.42,51.94 134.84,51.78 133.48,51.78C131.94,54.31 128.89,54.66 126.45,55.89C126.4,55.43 126.32,54.51 126.27,54.06L125.84,55.54L124.95,55.91C124.33,55.68 123.08,55.21 122.46,54.98C122.33,55.53 122.06,56.65 121.92,57.2C119.35,58.91 116.59,60.35 114.21,62.33C119.75,61.94 124.56,58.83 129.88,57.52L130.02,57.48C129.9,55.78 131.54,55.31 132.73,54.59C133.24,55.07 134.27,56.03 134.78,56.51C142.01,54.84 149.03,52.42 156.31,50.99C159.6,50.28 162.93,49.22 166.34,49.92L163.84,51.92C166.75,51.99 170.24,50.13 172.83,52.27C168.95,52.31 165.07,53.2 161.32,51.83C160.96,52.2 160.23,52.94 159.87,53.31C160.69,53.5 162.34,53.89 163.16,54.09L159.97,55.02C160.58,55.48 161.2,55.93 161.83,56.38C164.67,55.23 167.73,55.01 170.7,54.4C174.4,53.17 178.07,51.78 181.89,50.96C186,50.44 190.37,50.52 194.13,48.5C190.45,48.45 186.87,49.81 183.2,49.31L183.52,50.12C179.59,50.27 175.78,51.99 171.84,51.43C172.37,50.92 173.44,49.89 173.97,49.37C172.14,49.65 170.3,49.93 168.45,50.03C168.76,49.64 169.38,48.85 169.68,48.46L170.24,47.75C173.86,46.87 177.58,46.29 181.15,45.17C181.81,43.56 183.72,43.02 184.42,41.48C182.72,40.58 181.27,42.44 179.57,41.81C177.31,41.31 175.15,42.22 172.98,42.68C173.28,40.95 175.31,40.98 176.65,40.51C179.99,40.07 183.24,39.02 186.15,37.3C188.84,38 191.67,37.89 194.29,36.9C194.87,35.73 195.84,34.86 196.82,34.02C195.64,33.94 194.48,33.87 193.33,33.8C193.35,32.53 192.58,31.53 191.96,30.51ZM187.86,41.74C188.58,41.62 190.02,41.38 190.73,41.26C191.7,41.89 192.72,42.45 193.78,42.93C195.29,42.81 195.93,41.3 196.79,40.29C193.91,40.96 190.22,39.83 187.86,41.74ZM198.37,40.02C197.85,41.37 198.28,41.87 199.66,41.53C200.24,40.15 199.81,39.64 198.37,40.02ZM195.97,47.23C195.44,48.83 196.02,49.35 197.68,48.79C198.2,47.19 197.62,46.67 195.97,47.23ZM177,48.38C177.23,49.67 177.98,49.86 179.28,48.93C179.03,47.68 178.27,47.5 177,48.38ZM159.43,51.61C157.51,53.94 154.16,53.45 151.57,54.47C152.17,55.17 152.94,55.62 153.88,55.82L153.39,57.15C149.14,58.5 144.69,60.35 140.15,59.52C139.84,59.97 139.21,60.85 138.89,61.3C136.47,61.71 134.27,60.89 132.47,59.3C132.74,62.8 128.15,62.88 125.92,64.42L125.95,65.07C133.9,64.05 141.29,60.83 149.11,59.21C152.73,57.8 156.54,57.2 160.41,57.07C159.51,56.23 158.85,54.9 157.41,54.95C158.42,54.06 158.92,52.82 159.43,51.61ZM273.96,53.9C275.32,54.62 277.16,54.25 278.51,53.62C277.96,52.38 274.36,52.41 273.96,53.9ZM291.87,55.72C293.31,55.11 295.19,54.9 295.86,53.24C294.07,52.86 291.89,53.61 291.87,55.72ZM233.38,54.8C234.18,56.28 234.97,56.31 235.75,54.9C234.97,53.33 234.17,53.3 233.38,54.8ZM284.64,55.6C286.72,55.94 290.25,57.27 290.84,54.22C288.63,53.77 286.58,54.71 284.64,55.6ZM143.04,56.19C141.14,56.6 142.27,59.02 143.87,58.23C145.87,57.9 144.68,55.15 143.04,56.19ZM169.91,56.16C169.38,57.77 169.93,58.32 171.58,57.8C172.11,56.18 171.55,55.63 169.91,56.16ZM218.18,56.34C217.62,57.98 218.13,58.55 219.72,58.06C220.29,56.4 219.77,55.82 218.18,56.34ZM76.77,66.59C81.42,64.24 86.22,61.97 91.35,60.91C90.25,60.28 89.2,58.88 87.75,59.87C83.97,61.93 79.6,63.12 76.77,66.59ZM108.05,61.22C107.48,62.82 108.02,63.38 109.68,62.9C110.24,61.3 109.7,60.74 108.05,61.22ZM120.98,62.13C120.71,62.41 120.17,62.95 119.9,63.22C120.55,66.79 124.84,61.56 120.98,62.13ZM94.18,66.77L94.48,67.74C94.03,67.65 93.15,67.47 92.71,67.38C92.65,68.01 92.54,69.27 92.49,69.9C93.65,69.73 95.97,69.41 97.14,69.25C96.5,70.11 95.24,71.84 94.6,72.7C97.87,71.94 101.05,70.82 104.16,69.56C104.24,69.76 104.39,70.16 104.46,70.36C102.85,70.78 101.73,71.94 100.7,73.14C99.48,73.35 98.44,73.92 97.47,74.62C103.76,74 110.1,72.46 115.8,69.64C117.25,69.16 118.87,68.85 119.49,67.23C116.78,67.16 114.06,67.29 111.51,68.27C111.45,67.74 111.33,66.66 111.26,66.12C108.9,66.58 105.68,68.82 103.61,66.6C104.32,66.23 105.75,65.48 106.46,65.1C105.3,62.42 101.99,63.92 99.81,63.53C97.32,63.14 95.68,65.14 94.18,66.77ZM227.8,64.68C223.44,65.66 218.97,65.77 214.58,66.53C213.56,66.61 212.8,67.12 212.29,68.07C217.59,68.53 222.57,66.21 227.84,66.26C230.17,66.19 232.45,65.62 234.68,64.94C236.76,65.46 238.87,64.97 240.93,64.54C236.68,63.11 232.13,64.42 227.8,64.68ZM115.09,64.42C113.59,64.59 113.91,66.79 115.45,66.28C116.61,66.09 117.59,65.59 118.39,64.76C118.09,63.32 115.98,63.99 115.09,64.42ZM288.18,64.16C287.35,64.24 284.95,65.61 286.72,66.25C288.01,66.37 289.18,66.03 290.21,65.21C291.24,63.95 288.89,63.59 288.18,64.16ZM274.95,66.26C274.41,67.88 274.97,68.43 276.62,67.91C277.14,66.3 276.58,65.75 274.95,66.26ZM263.74,68.62C265.92,69.41 268.26,68.68 270.01,67.28C267.85,67.36 265.58,67.34 263.74,68.62ZM219.13,69.07C218.62,70.67 219.17,71.2 220.78,70.65C221.32,69 220.77,68.47 219.13,69.07ZM230.8,70.94C225.32,70.68 219.97,72.44 214.62,73.41C215.11,74.36 216.09,74.49 216.94,74.02C218.72,73.01 220.82,73.75 222.71,73.13C226.96,71.68 231.59,72.26 235.8,70.66C234.63,70.37 233.49,70.04 232.37,69.66C231.84,70.08 231.31,70.51 230.8,70.94ZM107.44,74.59C110.07,75.73 112.92,74.72 115.66,74.71C114.32,75.54 112.87,76.21 111.52,76.98C112.85,77.38 114.3,79.96 115.74,78.93C116.46,77.7 117.22,76.49 118.43,75.65C117.84,74.92 117.3,74.17 116.8,73.4C117.42,73.15 118.67,72.66 119.29,72.41C119.16,72.07 118.91,71.38 118.78,71.04C115.04,72.39 110.95,72.6 107.44,74.59ZM127.41,72.37C127.25,73.56 127.13,74.74 127.05,75.94C126.8,76.39 126.29,77.31 126.04,77.77C127.13,77.67 128.23,77.57 129.34,77.47C129.35,77.06 129.38,76.25 129.39,75.84L127.36,76.38C127.67,75.35 128.03,74.32 128.36,73.29C128.12,73.06 127.65,72.6 127.41,72.37ZM88.1,74.25C87.01,75.69 89.42,76.56 90.27,75.45C91.67,74.01 88.86,72.71 88.1,74.25ZM117.79,77.86L118.23,78.34C118.31,80.51 112.58,79.72 112.89,82.85C115.1,82.57 117.09,81.34 119.34,81.24C120.21,80.62 121.07,79.98 121.93,79.34C121.32,79.09 120.09,78.61 119.47,78.37C119.38,77.58 119.21,76.02 119.13,75.24C118.47,75.99 117.57,76.73 117.79,77.86ZM331.83,78.55C335.46,77.72 339.77,78.64 342.88,76.4C339.29,76.64 334.58,75.77 331.83,78.55ZM340.31,80.25C340.4,82.11 343.58,81.79 343.65,80.07C343.3,78.6 340.65,78.91 340.31,80.25ZM158.03,80.33C157.3,82.63 162.44,83.03 161.63,80.53C160.5,80.22 159.18,80.28 158.03,80.33ZM154.24,80.64L155.04,82.79C153.06,81.82 150.88,82.47 149.49,84.01C150.81,83.62 152.12,83.17 153.41,82.65C154.22,83.19 155.02,83.74 155.83,84.31C156.88,82.77 154.84,81.83 154.24,80.64ZM154.85,87.28C154.35,88.91 154.92,89.46 156.56,88.93C157.03,87.3 156.46,86.75 154.85,87.28ZM81.98,90.05C82.3,90.37 82.94,91 83.26,91.32C82.01,92.51 80.66,93.6 79.61,94.99C82.34,94.89 84.85,93.71 87.3,92.59C87.29,92.04 87.29,90.95 87.29,90.4C86.1,90.67 84.92,90.95 83.75,91.23C83.31,90.94 82.42,90.35 81.98,90.05ZM88.97,90.28C88.42,91.89 88.97,92.47 90.62,91.99C91.14,90.38 90.6,89.81 88.97,90.28ZM356.33,91.93C354.78,92.05 353.37,92.64 352.09,93.45C352.44,94.03 353.15,95.18 353.51,95.76C354.67,94.28 356.06,92.89 358.13,93.16C362.77,93.3 367.21,91.77 371.8,91.51C366.67,90.36 361.46,91.44 356.33,91.93ZM71.77,98.12C73.25,97.67 74.59,96.92 75.65,95.77C76.66,96.33 77.52,97.57 78.88,96.78C77.96,95.72 76.66,94.9 76.25,93.49C74.7,94.95 71.98,95.67 71.77,98.12ZM343.07,94.55C344.01,95.35 346.49,94.49 345.81,93.04C344.84,91.99 342.27,93.12 343.07,94.55ZM355.09,100.42C354.1,101.74 356.15,101.81 356.93,101.48C357.92,101.12 360.3,101.93 360.49,100.51C358.79,100.25 356.65,99.44 355.09,100.42ZM80.73,109.89C82.73,109.32 86.82,110.19 87.16,107.34C88.08,107.48 89.91,107.75 90.83,107.88C90.47,106.98 90.11,106.07 89.76,105.17C86.53,106.4 82.61,106.55 80.73,109.89ZM61.18,107.89C62.11,108.71 64.25,107.53 63.5,106.29C62.56,105.55 60.49,106.7 61.18,107.89ZM364.87,115.6C366.7,114.69 369.25,114.38 369.93,112.1C367.6,112.13 366.2,113.96 364.87,115.6ZM74.04,115.21C73.47,116.61 73.91,117.06 75.35,116.58C75.93,115.18 75.49,114.72 74.04,115.21ZM62.81,116.17C62.26,117.77 62.82,118.32 64.49,117.79C65.02,116.2 64.46,115.66 62.81,116.17ZM369.37,119.27C370.15,120.78 370.94,120.75 371.76,119.2C371,117.78 370.2,117.81 369.37,119.27ZM43.98,125.48C42.41,126.53 44.26,128.73 45.65,127.58C47.32,126.57 45.36,124.07 43.98,125.48ZM73.24,128.5C74.55,129.22 77.24,127.86 76.79,126.26C75.47,125.51 72.63,126.79 73.24,128.5ZM366.05,127.2C365.5,128.8 366.06,129.34 367.72,128.83C368.25,127.21 367.7,126.67 366.05,127.2ZM369.11,127.29C369.33,128.57 370.08,128.76 371.37,127.87C371.13,126.59 370.38,126.4 369.11,127.29ZM73.87,133.24C74.22,135.11 77.92,133.07 76.7,131.6C75.56,131.21 74.39,132.33 73.87,133.24ZM40.44,141.56C40.15,141.33 39.57,140.89 39.28,140.67C37.81,141.32 35.49,140.87 34.89,142.75C39.22,142.27 43.41,140.9 47.79,140.7C48.87,140.37 51.54,140.95 50.77,138.82C47.31,139.5 43.81,140.46 40.44,141.56ZM322.16,148.77C322.84,150.34 324.03,151.58 325.43,152.56C325.51,151.09 325.59,149.62 325.67,148.15C324.48,148.35 323.31,148.55 322.16,148.77ZM346.73,161.05C346.25,162.63 346.83,163.15 348.49,162.61C348.97,161.02 348.38,160.5 346.73,161.05ZM351.22,161.47L351.63,162.68L350.46,162.48C350.26,164.44 349.69,166.5 347.47,166.9C348.97,169.08 351.03,166.3 352.63,165.64L349.67,165.61C350.89,164.16 352.18,162.76 353.59,161.48C352.99,161.48 351.81,161.47 351.22,161.47ZM131.88,163.31C131.4,164.95 131.97,165.49 133.6,164.93C134.06,163.3 133.49,162.76 131.88,163.31ZM353.63,163.03C352.84,165.09 356.77,165.21 357.51,163.83C357.35,162.16 354.65,162.21 353.63,163.03ZM145.19,166.19C144.26,166.15 141.77,167.62 143.61,168.31C145.44,169.42 148.35,165.92 145.19,166.19ZM134.05,169.1C133.79,169.4 133.26,170.01 132.99,170.31C133.95,173.61 138,168.2 134.05,169.1ZM318.95,170.23C318.42,171.6 318.89,172.04 320.36,171.57C320.88,170.2 320.41,169.76 318.95,170.23ZM313.85,175.16C315.72,174.51 316.27,172.39 317.48,171C315.08,170.99 313.84,172.96 313.85,175.16ZM53.03,181.25L54.85,181.04L54,183.25C56.73,182.18 59.22,180.62 61.58,178.88C61.29,177.71 61.26,176.53 61.49,175.34C58.48,177.03 55.73,179.11 53.03,181.25ZM312.83,176.92C310.66,177.32 310.96,179.37 311.18,181.02C307.85,180.56 303.44,179.03 301.05,182.35C299.15,182.28 297.97,183.73 296.77,184.94C298.74,184.37 300.77,184.14 302.75,184.87C302.54,185.77 302.33,186.67 302.14,187.58C303.38,187.04 304.65,186.53 305.92,186.02C306.34,186.85 306.78,187.68 307.22,188.52L306.8,186.34L309.25,186.35C307.45,185.63 305.6,185 303.9,184.09C304.98,183 306.14,181.99 307.34,181.01C308.83,182.65 310.91,182.78 312.83,181.81L311.69,181.83C311.6,180.59 311.53,179.36 311.47,178.13L313.2,178.75C313.95,177.88 314.75,177.05 315.56,176.23C314.65,176.48 313.74,176.71 312.83,176.92ZM327.74,181.61C330.4,180.82 333.23,180.32 335.6,178.77C332.97,179.2 328.4,178.4 327.74,181.61ZM47.2,179.94L47.19,180.89C48.83,182.71 49.09,178.69 47.2,179.94ZM137.05,180.23C136.54,181.85 137.11,182.38 138.75,181.81C139.25,180.17 138.68,179.65 137.05,180.23ZM129.89,182.29C129.39,183.93 129.97,184.42 131.61,183.78C132.09,182.14 131.52,181.65 129.89,182.29ZM46.68,185.62C48.69,186.02 50.58,184.9 52.5,184.44C52.31,184.06 51.93,183.3 51.74,182.92C50.01,183.75 48.29,184.6 46.68,185.62ZM337.12,184.68C335.44,184.29 331.93,182.76 331.97,185.92C333.09,186.14 334.23,186.35 335.37,186.55C335.31,189.21 340.87,188.22 339.37,185.52C340.59,186.45 341.99,187.02 343.58,186.77C342.42,185.02 340.81,183.67 338.71,183.32C338.31,183.66 337.52,184.34 337.12,184.68ZM343.92,184.22C344,185.9 346.78,185.47 346.99,184.04C346.72,182.57 344.2,182.93 343.92,184.22ZM309.14,184.17C308.73,185.55 309.23,186.04 310.64,185.64C311.03,184.24 310.53,183.75 309.14,184.17ZM286.87,187.52C287.24,187.71 288,188.08 288.38,188.27C289.41,186.11 292.04,187.06 293.89,186.57C291.6,185.31 288.63,185.4 286.87,187.52ZM181.94,187.29C181.4,188.91 181.95,189.46 183.6,188.91C184.11,187.29 183.56,186.75 181.94,187.29ZM288.85,188.81C288.7,189.71 288.58,190.62 288.47,191.53C290.98,190.43 293.49,189.32 296,188.22C293.58,187.88 291.2,188.38 288.85,188.81ZM299.26,188.93C299.49,190.22 302.2,191.04 302.39,189.35C302.13,188.07 299.53,187.36 299.26,188.93ZM177.58,190.93C178.26,192.79 181.5,190.63 180.6,189.19C179.41,188.03 176.96,189.22 177.58,190.93ZM170.96,192.17C170.7,192.46 170.18,193.05 169.92,193.35C170.69,196.85 174.76,191.56 170.96,192.17ZM173.52,194.31C174.3,196.61 177.24,195.53 177.62,193.57C176.24,193.78 174.86,194.03 173.52,194.31ZM112.1,194.07C111.03,193.95 109.03,195.67 110.82,196.27C112.71,197.35 115.11,193.79 112.1,194.07ZM166.48,200.88C169.26,200.64 171.96,199.66 174.79,199.86C177.41,199.99 180.68,198.98 181.82,196.39C177.02,198.89 171.26,198.27 166.48,200.88ZM202.97,209.28C202.41,210.89 202.96,211.44 204.62,210.93C205.15,209.32 204.6,208.77 202.97,209.28ZM234.94,213.56C233.09,214.18 231.23,214.78 229.54,215.77C231.37,216.1 233.28,215.82 234.79,214.62C234.85,215.12 234.99,216.11 235.05,216.6C235.24,216.53 235.61,216.37 235.79,216.29C236.63,216.19 238.3,215.98 239.14,215.87C238.61,214.46 237.84,214.29 236.81,215.37C236.16,214.78 235.54,214.17 234.94,213.56ZM237.15,217.46C235.81,218.08 235.75,218.74 236.98,219.45C238.37,218.8 238.42,218.13 237.15,217.46ZM232.97,219.29C232.48,220.72 232.94,221.15 234.36,220.59C234.84,219.16 234.38,218.73 232.97,219.29ZM219.92,223.46C219.42,224.92 219.89,225.33 221.33,224.69C221.74,223.29 221.27,222.88 219.92,223.46ZM222.86,224.14C221.49,224.79 221.46,225.47 222.75,226.15C224.09,225.49 224.12,224.82 222.86,224.14Z" style="fill:rgb(135,0,0);fill-rule:nonzero;"/>
        <path d="M164.6,42.9C162.58,39.49 165.66,41.82 166.78,42.12C168.12,42.63 169.54,42.68 171.03,42.25C168.88,42.86 167.03,43.99 165.42,45.51C163.33,46.11 161.15,46.29 159.07,46.89C157.37,47.35 155.68,47.82 154,48.32C153.62,48.43 152.88,48.65 152.51,48.76C152.1,51.57 149.63,51.12 147.77,50.04C144.41,50.16 141.05,50.21 137.73,50.75C138.47,49.13 140.38,49.01 141.85,49.7C143.93,47.39 146.96,47.23 149.84,47C149.3,46.66 148.21,45.99 147.66,45.65C149.44,45.1 151.39,43.94 153.27,44.62C155.59,46.67 156.81,43.21 159.02,43.01L160.7,43.28C161.91,42.45 163.21,42.32 164.6,42.9Z" style="fill:rgb(135,0,0);fill-rule:nonzero;"/>
        <path d="M95.54,56.67C101.37,53.66 107.11,50.02 113.79,49.26C110.92,51.21 108.48,54.23 104.78,54.43C102.56,55.13 100.48,56.28 98.12,56.45C97.48,56.5 96.19,56.62 95.54,56.67Z" style="fill:rgb(135,0,0);fill-rule:nonzero;"/>
        <path d="M88.25,186.92C91.64,186.72 85.76,191.49 84.99,189.41C85.61,188.14 87.04,187.53 88.25,186.92Z" style="fill:rgb(135,0,0);fill-rule:nonzero;"/>
        <path d="M91.72,195.66C91.17,194.29 93.38,192.73 94.59,193.39C94.93,194.74 92.92,196.12 91.72,195.66Z" style="fill:rgb(135,0,0);fill-rule:nonzero;"/>
        <path d="M300.92,195.21C298.99,194.39 300.98,194.01 301.95,193.53C302.13,193.9 302.48,194.65 302.65,195.02C305.15,195.29 307.99,194 310.72,194.41C307.9,195.54 304.86,196.08 302.09,197.25C302.13,197.71 302.2,198.64 302.24,199.11C305.11,198.57 307.85,197.27 310.83,197.36C307.88,199.08 304.41,199.52 301.19,200.51C302.7,197.24 297.99,197.71 296.23,198.46C296.17,198.22 296.06,197.72 296,197.47C297.51,196.63 300.27,197.18 300.92,195.21Z" style="fill:rgb(135,0,0);fill-rule:nonzero;"/>
        <path d="M146.74,44.03C147.16,42.82 148.05,42.56 149.41,43.26C148.96,44.46 148.06,44.72 146.74,44.03Z" style="fill:rgb(135,0,0);fill-rule:nonzero;"/>
        <path d="M265.99,199.54C267.36,197.59 269.04,199.71 270.53,200.29C268.72,200.9 266.94,201.55 265.21,202.35C263.2,203.23 261.14,204.03 259.11,204.86C259.13,204.4 259.16,203.47 259.18,203.01L259.19,202.66C259.1,202.09 258.93,200.94 258.84,200.37C261.23,200.65 264.08,201.58 265.99,199.54Z" style="fill:rgb(135,0,0);fill-rule:nonzero;"/>
        <path d="M195.97,47.23C197.62,46.67 198.2,47.19 197.68,48.79C196.02,49.35 195.44,48.83 195.97,47.23Z" style="fill:rgb(135,0,0);fill-rule:nonzero;"/>
        <path d="M145.19,166.19C148.35,165.92 145.44,169.42 143.61,168.31C141.77,167.62 144.26,166.15 145.19,166.19Z" style="fill:rgb(135,0,0);fill-rule:nonzero;"/>
        <path d="M177,48.38C178.27,47.5 179.03,47.68 179.28,48.93C177.98,49.86 177.23,49.67 177,48.38Z" style="fill:rgb(135,0,0);fill-rule:nonzero;"/>
        <path d="M143.04,56.19C144.68,55.15 145.87,57.9 143.87,58.23C142.27,59.02 141.14,56.6 143.04,56.19Z" style="fill:rgb(135,0,0);fill-rule:nonzero;"/>
        <path d="M169.91,56.16C171.55,55.63 172.11,56.18 171.58,57.8C169.93,58.32 169.38,57.77 169.91,56.16Z" style="fill:rgb(135,0,0);fill-rule:nonzero;"/>
        <path d="M256.42,56.38C256.9,56.27 257.86,56.05 258.34,55.95L258.82,56.66C258.22,56.59 257.02,56.45 256.42,56.38Z" style="fill:rgb(135,0,0);fill-rule:nonzero;"/>
        <path d="M129.89,182.29C131.52,181.65 132.09,182.14 131.61,183.78C129.97,184.42 129.39,183.93 129.89,182.29Z" style="fill:rgb(135,0,0);fill-rule:nonzero;"/>
        <path d="M95.19,59.69C95.3,59.73 95.53,59.81 95.64,59.85L95.03,59.82L95.19,59.69Z" style="fill:rgb(135,0,0);fill-rule:nonzero;"/>
        <path d="M88.97,90.28C90.6,89.81 91.14,90.38 90.62,91.99C88.97,92.47 88.42,91.89 88.97,90.28Z" style="fill:rgb(135,0,0);fill-rule:nonzero;"/>
        <path d="M255.73,60.84C257.28,60.21 259.64,59.06 260.91,60.83C259.42,61.42 257.92,61.53 256.4,61.16L255.73,60.84Z" style="fill:rgb(135,0,0);fill-rule:nonzero;"/>
        <path d="M108.05,61.22C109.7,60.74 110.24,61.3 109.68,62.9C108.02,63.38 107.48,62.82 108.05,61.22Z" style="fill:rgb(135,0,0);fill-rule:nonzero;"/>
        <path d="M137.05,180.23C138.68,179.65 139.25,180.17 138.75,181.81C137.11,182.38 136.54,181.85 137.05,180.23Z" style="fill:rgb(135,0,0);fill-rule:nonzero;"/>
        <path d="M202.97,209.28C204.6,208.77 205.15,209.32 204.62,210.93C202.96,211.44 202.41,210.89 202.97,209.28Z" style="fill:rgb(135,0,0);fill-rule:nonzero;"/>
        <path d="M274.95,66.26C276.58,65.75 277.14,66.3 276.62,67.91C274.97,68.43 274.41,67.88 274.95,66.26Z" style="fill:rgb(135,0,0);fill-rule:nonzero;"/>
        <path d="M251.66,68.01C249.51,69.49 248.08,66.52 251.03,66.76C251.19,67.07 251.5,67.7 251.66,68.01Z" style="fill:rgb(135,0,0);fill-rule:nonzero;"/>
        <path d="M158.03,80.33C159.18,80.28 160.5,80.22 161.63,80.53C162.44,83.03 157.3,82.63 158.03,80.33Z" style="fill:rgb(135,0,0);fill-rule:nonzero;"/>
        <path d="M154.85,87.28C156.46,86.75 157.03,87.3 156.56,88.93C154.92,89.46 154.35,88.91 154.85,87.28Z" style="fill:rgb(135,0,0);fill-rule:nonzero;"/>
        <path d="M222.86,224.14C224.12,224.82 224.09,225.49 222.75,226.15C221.46,225.47 221.49,224.79 222.86,224.14Z" style="fill:rgb(135,0,0);fill-rule:nonzero;"/>
        <path d="M309.14,184.17C310.53,183.75 311.03,184.24 310.64,185.64C309.23,186.04 308.73,185.55 309.14,184.17Z" style="fill:rgb(135,0,0);fill-rule:nonzero;"/>
        <path d="M61.18,107.89C60.49,106.7 62.56,105.55 63.5,106.29C64.25,107.53 62.11,108.71 61.18,107.89Z" style="fill:rgb(135,0,0);fill-rule:nonzero;"/>
        <path d="M74.04,115.21C75.49,114.72 75.93,115.18 75.35,116.58C73.91,117.06 73.47,116.61 74.04,115.21Z" style="fill:rgb(135,0,0);fill-rule:nonzero;"/>
        <path d="M62.81,116.17C64.46,115.66 65.02,116.2 64.49,117.79C62.82,118.32 62.26,117.77 62.81,116.17Z" style="fill:rgb(135,0,0);fill-rule:nonzero;"/>
        <path d="M36.94,178.21C38.39,177.75 38.81,178.21 38.21,179.6C36.76,180.08 36.34,179.62 36.94,178.21Z" style="fill:rgb(135,0,0);fill-rule:nonzero;"/>
        <path d="M366.05,127.2C367.7,126.67 368.25,127.21 367.72,128.83C366.06,129.34 365.5,128.8 366.05,127.2Z" style="fill:rgb(135,0,0);fill-rule:nonzero;"/>
        <path d="M369.11,127.29C370.38,126.4 371.13,126.59 371.37,127.87C370.08,128.76 369.33,128.57 369.11,127.29Z" style="fill:rgb(135,0,0);fill-rule:nonzero;"/>
        <path d="M131.88,163.31C133.49,162.76 134.06,163.3 133.6,164.93C131.97,165.49 131.4,164.95 131.88,163.31Z" style="fill:rgb(135,0,0);fill-rule:nonzero;"/>
        <path d="M85.1,169.35C85.95,168.49 87.37,168.51 88.06,169.6C84.04,171.65 80.64,174.7 76.59,176.69C76.68,176.04 76.84,174.75 76.92,174.1C79.63,172.49 82.53,171.2 85.1,169.35Z" style="fill:rgb(135,0,0);fill-rule:nonzero;"/>
        <path d="M134.05,169.1C138,168.2 133.95,173.61 132.99,170.31C133.26,170.01 133.79,169.4 134.05,169.1Z" style="fill:rgb(135,0,0);fill-rule:nonzero;"/>
        <path d="M318.95,170.23C320.41,169.76 320.88,170.2 320.36,171.57C318.89,172.04 318.42,171.6 318.95,170.23Z" style="fill:rgb(135,0,0);fill-rule:nonzero;"/>
        <path d="M181.94,187.29C183.56,186.75 184.11,187.29 183.6,188.91C181.95,189.46 181.4,188.91 181.94,187.29Z" style="fill:rgb(135,0,0);fill-rule:nonzero;"/>
        <path d="M110.52,205.84C126.58,205.88 142.65,205.76 158.72,205.94C154.62,208.24 149.91,208.84 145.53,210.35C138.46,212.87 131.1,214.4 123.76,215.86C121,216.87 118.12,217.55 115.18,217.03C115.47,214.55 113.43,211.66 115.48,209.64C116.8,209.74 118.13,209.84 119.47,209.95C117.99,208.91 118.11,207.73 119.84,206.4C118.15,206.64 116.47,206.67 114.79,206.49C113.24,206.53 110.98,208.55 110.52,205.84ZM119.9,211.18C119.3,212.8 119.83,213.37 121.49,212.88C122.06,211.28 121.54,210.71 119.9,211.18Z" style="fill:rgb(135,0,0);fill-rule:nonzero;"/>
        <path d="M183.62,206.34C183.83,206.26 184.24,206.11 184.45,206.03C184.96,206.34 185.98,206.96 186.49,207.27C186.21,208.3 185.93,209.34 185.67,210.37L186.4,210.48C186.45,207.91 189.58,208.22 188.53,210.64C188.07,210.77 187.15,211.02 186.69,211.15C187.17,213.33 185.73,213.64 184.05,212.73C183.72,210.59 185.23,208.23 183.62,206.34Z" style="fill:rgb(135,0,0);fill-rule:nonzero;"/>
        <path d="M242.57,207.12L243.54,206.67C246.22,207.05 242.56,209.29 242.57,207.12Z" style="fill:rgb(135,0,0);fill-rule:nonzero;"/>
        <path d="M119.9,211.18C121.54,210.71 122.06,211.28 121.49,212.88C119.83,213.37 119.3,212.8 119.9,211.18Z" style="fill:rgb(135,0,0);fill-rule:nonzero;"/>
        <path d="M232.97,219.29C234.38,218.73 234.84,219.16 234.36,220.59C232.94,221.15 232.48,220.72 232.97,219.29Z" style="fill:rgb(135,0,0);fill-rule:nonzero;"/>
    </g>
</svg>
